<?xml version="1.0" encoding="UTF-8"?>
<!-- Generator: Adobe Illustrator 17.1.0, SVG Export Plug-In . SVG Version: 6.00 Build 0)  -->
<!DOCTYPE svg PUBLIC "-//W3C//DTD SVG 1.1//EN" "http://www.w3.org/Graphics/SVG/1.1/DTD/svg11.dtd">
<svg version="1.1" xmlns="http://www.w3.org/2000/svg" xmlns:xlink="http://www.w3.org/1999/xlink" x="0px" y="0px" width="1000px" height="1000px" viewBox="0 0 1000 1000" enable-background="new 0 0 1000 1000" xml:space="preserve">
<g id="Layer_1">
	<rect x="500" y="0" fill="#1CB0F6" width="40.6" height="40.3"/>
	<rect x="26.7" fill="#FFFFFF" width="26.7" height="80"/>
	<rect fill="#1CB0F6" width="26.7" height="80"/>
	<rect x="53.4" fill="#D33131" width="26.7" height="80"/>
	<rect x="300" y="0" fill="#7AC70C" width="80" height="80"/>
	<rect x="426.7" y="0" fill="#FFFFFF" width="26.7" height="80"/>
	<rect x="400" y="0" fill="#7AC70C" width="26.7" height="80"/>
	<rect x="453.4" y="0" fill="#D33131" width="26.7" height="80"/>
	<rect x="200" y="26.7" fill="#D33131" width="80" height="26.7"/>
	<rect x="200" y="53.4" fill="#FFC200" width="80" height="26.7"/>
	<rect x="200" y="0" fill="#231F20" width="80" height="26.7"/>
	<polygon fill="#D33131" points="227.2,100 254.5,100 254.5,146.6 240.9,141.5 227.2,146.4  "/>
	<polygon fill="#231F20" points="227.2,100 200,100 200,156 227.2,146.4  "/>
	<polygon fill="#FFC200" points="254.5,146.6 280,156 280,100 254.5,100  "/>
	<polygon fill="#FFFFFF" points="427.2,100 454.5,100 454.5,146.6 440.9,141.5 427.2,146.4  "/>
	<polygon fill="#7AC70C" points="427.2,100 400,100 400,156 427.2,146.4  "/>
	<polygon fill="#D33131" points="454.5,146.6 480,156 480,100 454.5,100  "/>
	<polygon fill="#7AC70C" points="300,100 380,100 380,156 340.9,141.5 300,156  "/>
	<polygon fill="#FFFFFF" points="27.2,100.1 54.5,100.1 54.5,146.7 40.9,141.6 27.2,146.5  "/>
	<polygon fill="#1CB0F6" points="27.2,100.1 0,100.1 0,156.2 27.2,146.5  "/>
	<polygon fill="#D33131" points="54.5,146.7 80,156.1 80,100.1 54.5,100.1  "/>
	<polygon fill="#FFC200" points="119.4,100 160.9,100 160.9,148.9 140.9,141.5 119.4,149.2  "/>
	<polygon fill="#D33131" points="119.4,100 100,100 100,156 119.4,149.2  "/>
	<polygon fill="#D33131" points="160.9,148.9 180,156 180,100 160.9,100  "/>
	<path fill="#3871DB" d="M340.3,113.6c-8.1,0-14.6,6.5-14.6,14.6c0,7.2,5.2,13.2,12.1,14.4l3.1-1.1l2.6,1   c6.5-1.5,11.4-7.3,11.4-14.3C354.9,120.2,348.4,113.6,340.3,113.6z"/>
	<path fill="#FFFFFF" d="M326.7,122.9c-0.4,1.1-0.8,2.3-0.9,3.6c2.4-0.4,4.9-0.7,7.7-0.7c10.2,0,17.8,3.2,20.7,6.9   c0.4-1.3,0.6-2.7,0.7-4.1c-4.5-3.7-12.3-6.1-21.4-6.1C331.1,122.4,328.9,122.6,326.7,122.9z"/>
	<circle fill="#FFFFFF" cx="334.4" cy="128" r="0.9"/>
	<circle fill="#FFFFFF" cx="346" cy="131.5" r="0.9"/>
	<circle fill="#FFFFFF" cx="337.9" cy="133.8" r="0.9"/>
	<circle fill="#FFFFFF" cx="346" cy="121.1" r="0.7"/>
	<path fill="#FFCE00" d="M377,41.1l-36.5-28.8c-0.2-0.1-0.4-0.1-0.6,0l-36.5,28.8c-0.1,0.1-0.2,0.2-0.2,0.4s0.1,0.3,0.2,0.4   l36.5,28.8c0.1,0.1,0.2,0.1,0.3,0.1s0.2,0,0.3-0.1L377,41.9c0.1-0.1,0.2-0.2,0.2-0.4S377.2,41.2,377,41.1z"/>
	<g>
		<path fill="#FFFFFF" d="M511.7,7.4L511.7,7.4 M508.5,4.3c-0.4,0-0.7,0.2-0.8,0.6l-0.6,1.7h-1.8c-0.4,0-0.7,0.2-0.8,0.6    c-0.1,0.3,0,0.7,0.3,0.9l1.5,1.1l-0.6,1.7c-0.1,0.3,0,0.7,0.3,0.9c0.1,0.1,0.3,0.2,0.5,0.2c0.2,0,0.3-0.1,0.5-0.2l1.5-1.1l1.5,1.1    c0.1,0.1,0.3,0.2,0.5,0.2c0.2,0,0.3-0.1,0.5-0.2c0.3-0.2,0.4-0.6,0.3-0.9l-0.6-1.7l1.4-1c0.2-0.1,0.4-0.4,0.4-0.7    c0-0.5-0.4-0.8-0.8-0.8h0h-1.8l-0.6-1.7C509.2,4.5,508.9,4.3,508.5,4.3L508.5,4.3z"/>
	</g>
	<g>
		<path fill="#FFFFFF" d="M523.6,7.4L523.6,7.4 M520.4,4.3c-0.4,0-0.7,0.2-0.8,0.6l-0.6,1.7h-1.8c-0.4,0-0.7,0.2-0.8,0.6    c-0.1,0.3,0,0.7,0.3,0.9l1.5,1.1l-0.6,1.7c-0.1,0.3,0,0.7,0.3,0.9c0.1,0.1,0.3,0.2,0.5,0.2c0.2,0,0.3-0.1,0.5-0.2l1.5-1.1l1.5,1.1    c0.1,0.1,0.3,0.2,0.5,0.2c0.2,0,0.3-0.1,0.5-0.2c0.3-0.2,0.4-0.6,0.3-0.9l-0.6-1.7l1.4-1c0.2-0.1,0.4-0.4,0.4-0.7    c0-0.5-0.4-0.8-0.8-0.8h0h-1.8l-0.6-1.7C521.1,4.5,520.8,4.3,520.4,4.3L520.4,4.3z"/>
	</g>
	<g>
		<path fill="#FFFFFF" d="M535.4,7.4L535.4,7.4 M532.3,4.3c-0.4,0-0.7,0.2-0.8,0.6l-0.6,1.7h-1.8c-0.4,0-0.7,0.2-0.8,0.6    c-0.1,0.3,0,0.7,0.3,0.9l1.5,1.1l-0.6,1.7c-0.1,0.3,0,0.7,0.3,0.9c0.1,0.1,0.3,0.2,0.5,0.2c0.2,0,0.3-0.1,0.5-0.2l1.5-1.1l1.5,1.1    c0.1,0.1,0.3,0.2,0.5,0.2c0.2,0,0.3-0.1,0.5-0.2c0.3-0.2,0.4-0.6,0.3-0.9l-0.6-1.7l1.4-1c0.2-0.1,0.4-0.4,0.4-0.7    c0-0.5-0.4-0.8-0.8-0.8h0h-1.8L533,4.8C532.9,4.5,532.6,4.3,532.3,4.3L532.3,4.3z"/>
	</g>
	<g>
		<path fill="#FFFFFF" d="M511.7,19.3L511.7,19.3 M508.5,16.2c-0.4,0-0.7,0.2-0.8,0.6l-0.6,1.7h-1.8c-0.4,0-0.7,0.2-0.8,0.6    c-0.1,0.3,0,0.7,0.3,0.9l1.5,1.1l-0.6,1.7c-0.1,0.3,0,0.7,0.3,0.9c0.1,0.1,0.3,0.2,0.5,0.2c0.2,0,0.3-0.1,0.5-0.2l1.5-1.1l1.5,1.1    c0.1,0.1,0.3,0.2,0.5,0.2c0.2,0,0.3-0.1,0.5-0.2c0.3-0.2,0.4-0.6,0.3-0.9l-0.6-1.7l1.4-1c0.2-0.1,0.4-0.4,0.4-0.7    c0-0.5-0.4-0.8-0.8-0.8h0h-1.8l-0.6-1.7C509.2,16.4,508.9,16.2,508.5,16.2L508.5,16.2z"/>
	</g>
	<g>
		<path fill="#FFFFFF" d="M523.6,19.3L523.6,19.3 M520.4,16.2c-0.4,0-0.7,0.2-0.8,0.6l-0.6,1.7h-1.8c-0.4,0-0.7,0.2-0.8,0.6    c-0.1,0.3,0,0.7,0.3,0.9l1.5,1.1l-0.6,1.7c-0.1,0.3,0,0.7,0.3,0.9c0.1,0.1,0.3,0.2,0.5,0.2c0.2,0,0.3-0.1,0.5-0.2l1.5-1.1l1.5,1.1    c0.1,0.1,0.3,0.2,0.5,0.2c0.2,0,0.3-0.1,0.5-0.2c0.3-0.2,0.4-0.6,0.3-0.9l-0.6-1.7l1.4-1c0.2-0.1,0.4-0.4,0.4-0.7    c0-0.5-0.4-0.8-0.8-0.8h0h-1.8l-0.6-1.7C521.1,16.4,520.8,16.2,520.4,16.2L520.4,16.2z"/>
	</g>
	<g>
		<path fill="#FFFFFF" d="M535.4,19.3L535.4,19.3 M532.3,16.2c-0.4,0-0.7,0.2-0.8,0.6l-0.6,1.7h-1.8c-0.4,0-0.7,0.2-0.8,0.6    c-0.1,0.3,0,0.7,0.3,0.9l1.5,1.1l-0.6,1.7c-0.1,0.3,0,0.7,0.3,0.9c0.1,0.1,0.3,0.2,0.5,0.2c0.2,0,0.3-0.1,0.5-0.2l1.5-1.1l1.5,1.1    c0.1,0.1,0.3,0.2,0.5,0.2c0.2,0,0.3-0.1,0.5-0.2c0.3-0.2,0.4-0.6,0.3-0.9l-0.6-1.7l1.4-1c0.2-0.1,0.4-0.4,0.4-0.7    c0-0.5-0.4-0.8-0.8-0.8h0h-1.8l-0.6-1.7C532.9,16.4,532.6,16.2,532.3,16.2L532.3,16.2z"/>
	</g>
	<g>
		<path fill="#FFFFFF" d="M511.7,31.1L511.7,31.1 M508.5,28c-0.4,0-0.7,0.2-0.8,0.6l-0.6,1.7h-1.8c-0.4,0-0.7,0.2-0.8,0.6    c-0.1,0.3,0,0.7,0.3,0.9l1.5,1.1l-0.6,1.7c-0.1,0.3,0,0.7,0.3,0.9c0.1,0.1,0.3,0.2,0.5,0.2c0.2,0,0.3-0.1,0.5-0.2l1.5-1.1l1.5,1.1    c0.1,0.1,0.3,0.2,0.5,0.2c0.2,0,0.3-0.1,0.5-0.2c0.3-0.2,0.4-0.6,0.3-0.9l-0.6-1.7l1.4-1c0.2-0.1,0.4-0.4,0.4-0.7    c0-0.5-0.4-0.8-0.8-0.8h0h-1.8l-0.6-1.7C509.2,28.3,508.9,28,508.5,28L508.5,28z"/>
	</g>
	<g>
		<path fill="#FFFFFF" d="M523.6,31.1L523.6,31.1 M520.4,28c-0.4,0-0.7,0.2-0.8,0.6l-0.6,1.7h-1.8c-0.4,0-0.7,0.2-0.8,0.6    c-0.1,0.3,0,0.7,0.3,0.9l1.5,1.1l-0.6,1.7c-0.1,0.3,0,0.7,0.3,0.9c0.1,0.1,0.3,0.2,0.5,0.2c0.2,0,0.3-0.1,0.5-0.2l1.5-1.1l1.5,1.1    c0.1,0.1,0.3,0.2,0.5,0.2c0.2,0,0.3-0.1,0.5-0.2c0.3-0.2,0.4-0.6,0.3-0.9l-0.6-1.7l1.4-1c0.2-0.1,0.4-0.4,0.4-0.7    c0-0.5-0.4-0.8-0.8-0.8h0h-1.8l-0.6-1.7C521.1,28.3,520.8,28,520.4,28L520.4,28z"/>
	</g>
	<g>
		<path fill="#FFFFFF" d="M535.4,31.1L535.4,31.1 M532.3,28c-0.4,0-0.7,0.2-0.8,0.6l-0.6,1.7h-1.8c-0.4,0-0.7,0.2-0.8,0.6    c-0.1,0.3,0,0.7,0.3,0.9l1.5,1.1l-0.6,1.7c-0.1,0.3,0,0.7,0.3,0.9c0.1,0.1,0.3,0.2,0.5,0.2c0.2,0,0.3-0.1,0.5-0.2l1.5-1.1l1.5,1.1    c0.1,0.1,0.3,0.2,0.5,0.2c0.2,0,0.3-0.1,0.5-0.2c0.3-0.2,0.4-0.6,0.3-0.9l-0.6-1.7l1.4-1c0.2-0.1,0.4-0.4,0.4-0.7    c0-0.5-0.4-0.8-0.8-0.8h0h-1.8l-0.6-1.7C532.9,28.3,532.6,28,532.3,28L532.3,28z"/>
	</g>
	<g>
		<g>
			<path fill="#7A221E" stroke="#7A221E" stroke-width="2" stroke-miterlimit="10" d="M139.9,131.7c-2.3,0-4.1-0.9-4.3-2.1     c0,0,0-0.1,0-0.1v-4h-0.7v4.5h0.2c0.1,0,0.2,0.1,0.2,0.2v1.2c0,0.1-0.1,0.2-0.2,0.2h-2.6c-0.1,0-0.2-0.1-0.2-0.2v-1.2     c0-0.1,0.1-0.2,0.2-0.2h0.2v-4.5h-0.8c-0.1,0-0.2-0.1-0.2-0.2v-0.9c0-0.1,0.1-0.2,0.2-0.2h0.8v-2.2c0-0.1,0-0.2,0.1-0.2     c-0.1-0.2-0.2-0.4-0.2-0.5c0-0.5,0.7-0.5,1.1-0.5c1,0,1.1,0.4,1.1,0.6c0,0.2-0.1,0.3-0.1,0.4c0.1,0,0.1,0.1,0.1,0.2v2.2h0.7v-2.3     c0-0.1,0.1-0.2,0.2-0.2h8.2c0.1,0,0.2,0.1,0.2,0.2v2.3h0.7v-2.2c0-0.1,0-0.2,0.1-0.2c-0.1-0.2-0.2-0.4-0.2-0.5     c0-0.5,0.7-0.5,1.1-0.5c1,0,1.1,0.4,1.1,0.6c0,0.2-0.1,0.3-0.1,0.4c0.1,0,0.1,0.1,0.1,0.2v2.2h0.6c0.1,0,0.2,0.1,0.2,0.2v0.9     c0,0.1-0.1,0.2-0.2,0.2h-0.6v4.5h0.2c0.1,0,0.2,0.1,0.2,0.2v1.2c0,0.1-0.1,0.2-0.2,0.2h-2.6c-0.1,0-0.2-0.1-0.2-0.2v-1.2     c0-0.1,0.1-0.2,0.2-0.2h0.2v-4.5h-0.7v4c0,0,0,0.1,0,0.1C144,130.9,142.2,131.7,139.9,131.7z"/>
		</g>
		<g>
			<path fill="#7A221E" stroke="#7A221E" stroke-width="2" stroke-miterlimit="10" d="M139.9,121.8c-2,0-2.7-0.1-2.8-0.5l-1.7-1.8     c0,0-0.1-0.1-0.1-0.1c0-1.3,1.8-2.2,4.5-2.2c2.4,0,4.6,0.3,4.6,2.2c0,0.7-0.6,1-1.1,1.3c-0.3,0.1-0.6,0.3-0.6,0.4     C142.7,121.7,141.6,121.8,139.9,121.8z"/>
			<path fill="#7A221E" stroke="#7A221E" stroke-width="2" stroke-miterlimit="10" d="M139.8,117.4c2.6,0,4.4,0.4,4.4,2     c0,1-1.7,1.1-1.7,1.7c0,0.4-1.5,0.4-2.6,0.4c-1.1,0-2.6,0-2.6-0.3l-1.7-1.9C135.5,118.2,137.2,117.4,139.8,117.4 M139.8,117     c-2.9,0-4.7,0.9-4.7,2.4c0,0.1,0,0.2,0.1,0.3l1.6,1.8c0.2,0.5,1.2,0.6,3,0.6c1.7,0,3,0,3-0.9c0,0,0.3-0.2,0.5-0.3     c0.5-0.3,1.2-0.7,1.2-1.5C144.6,117,141.4,117,139.8,117L139.8,117z"/>
		</g>
	</g>
	<rect x="100.1" y="18.6" fill="#FFC200" width="80" height="42.9"/>
	<rect x="100.1" fill="#D33131" width="80" height="18.6"/>
	<rect x="100.1" y="61.5" fill="#D33131" width="80" height="18.6"/>
	<g>
		<g>
			<path fill="#7A221E" d="M140.3,50.8c-2.7,0-5-0.8-6.2-2v0.8c0,0.6-0.4,1-1,1h-3.9c-0.6,0-1-0.4-1-1v-1.8c0-0.4,0.2-0.7,0.6-0.9     v-5.5h-0.5c-0.6,0-1-0.4-1-1v-1.4c0-0.6,0.4-1,1-1h0.5v-2.7c0-0.1,0-0.3,0.1-0.4c-0.1-0.2-0.1-0.5-0.1-0.7c0-1.5,1.7-1.5,2.3-1.5     c2.2,0,2.4,1.2,2.4,1.6c0.2-0.1,0.4-0.2,0.6-0.2h12.3c0.2,0,0.4,0.1,0.6,0.2c0,0,0,0,0-0.1c0-1.5,1.7-1.5,2.3-1.5     c2.2,0,2.4,1.3,2.4,1.6c0,0.2,0,0.4-0.1,0.6c0,0.1,0.1,0.2,0.1,0.4v2.7h0.2c0.6,0,1,0.4,1,1v1.4c0,0.6-0.4,1-1,1h-0.2v5.4     c0.4,0.2,0.6,0.5,0.6,0.9v1.8c0,0.6-0.4,1-1,1h-3.9c-0.6,0-1-0.4-1-1v-0.8C145.3,50.1,143,50.8,140.3,50.8z"/>
			<path fill="#7A221E" d="M149.4,33.9c0.6,0,1.4,0.1,1.4,0.6c0,0.4-0.4,0.7-0.6,0.9h0.5v3.7h1.2v1.4h-1.2v7.3h0.6v1.8h-3.9v-1.8     h0.6v-7.3h-1.6v6.4h0c-0.1,1.7-2.8,3-6.1,3c-3.3,0-6-1.3-6.1-3h0v-6.4h-1.7v7.4h0.6v1.8h-3.9v-1.8h0.6v-7.4h-1.5v-1.4h1.5v-3.7     h0.4c-0.2-0.2-0.5-0.7-0.5-1.1c0-0.5,0.7-0.5,1.3-0.5c0.6,0,1.4,0.1,1.4,0.6c0,0.4-0.4,0.7-0.6,0.9h0.5v3.7h1.7v-3.8h12.3v3.8     h1.6v-3.7h0.4c-0.2-0.2-0.5-0.7-0.5-1.1C148.1,33.9,148.8,33.9,149.4,33.9 M149.4,31.9c-1.9,0-2.7,0.7-3.1,1.4h-12.1     c-0.5-0.8-1.4-1.4-3.1-1.4c-2.9,0-3.3,1.6-3.3,2.5c0,0.2,0,0.5,0.1,0.7c0,0.1,0,0.2,0,0.4v1.7c-0.9,0.2-1.5,1-1.5,1.9v1.4     c0,0.9,0.6,1.7,1.5,1.9v4c-0.4,0.4-0.6,0.9-0.6,1.4v1.8c0,1.1,0.9,2,2,2h3.9c0.8,0,1.4-0.4,1.7-1c1.4,0.8,3.3,1.2,5.4,1.2     c2.1,0,4-0.5,5.4-1.2c0.3,0.6,1,1,1.7,1h3.9c1.1,0,2-0.9,2-2v-1.8c0-0.6-0.2-1.1-0.6-1.4v-4.1c0.7-0.3,1.2-1,1.2-1.8v-1.4     c0-0.8-0.5-1.5-1.2-1.8v-1.8c0-0.1,0-0.2,0-0.3c0-0.2,0.1-0.4,0.1-0.6C152.8,33.3,151.9,31.9,149.4,31.9L149.4,31.9z"/>
		</g>
		<g>
			<path fill="#7A221E" d="M140.3,35.9c-2.8,0-4.5-0.1-4.9-1l-2.4-2.6c-0.2-0.2-0.3-0.4-0.3-0.7c0-2.4,2.8-4,7.4-4     c2.5,0,7.6,0,7.6,4c0,1.4-1.3,2.1-2,2.5c-0.2,0.1-0.4,0.2-0.5,0.3C144.9,35.9,142.8,35.9,140.3,35.9z"/>
			<path fill="#7A221E" d="M140.2,28.6c3.9,0,6.6,0.5,6.6,3c0,1.5-2.6,1.7-2.6,2.6c0,0.6-2.2,0.6-3.9,0.6c-1.7,0-4,0-4-0.5l-2.6-2.8     C133.7,29.8,136.3,28.6,140.2,28.6 M140.2,26.6c-6.2,0-8.4,2.6-8.4,5c0,0.5,0.2,1,0.5,1.3l2.2,2.4c0.7,1.5,3.2,1.5,5.8,1.5     c2.4,0,5.1,0,5.8-1.8c0,0,0.1,0,0.1-0.1c0.8-0.4,2.6-1.4,2.6-3.4C148.7,26.6,142.5,26.6,140.2,26.6L140.2,26.6z"/>
		</g>
	</g>
	<polygon fill="#FFFFFF" points="119.4,500 160.9,500 160.9,548.9 140.9,541.5 119.4,549.2  "/>
	<polygon fill="#1CB0F6" points="119.4,500 100,500 100,556 119.4,549.2  "/>
	<polygon fill="#1CB0F6" points="160.9,548.9 180,556 180,500 160.9,500  "/>
	<rect x="100.1" y="418.6" fill="#FFFFFF" width="80" height="42.9"/>
	<rect x="100.1" y="400" fill="#1CB0F6" width="80" height="18.6"/>
	<rect x="100.1" y="461.5" fill="#1CB0F6" width="80" height="18.6"/>
	<rect x="700" y="26.9" fill="#FFFFFF" width="80" height="26.4"/>
	<rect x="700" fill="#D33131" width="80" height="26.9"/>
	<rect x="700" y="53.2" fill="#7AC70C" width="80" height="26.9"/>
	<rect x="626.6" y="0" fill="#FFFFFF" width="26.7" height="80"/>
	<rect x="600" y="0" fill="#7AC70C" width="26.7" height="80"/>
	<rect x="653.3" y="0" fill="#FF9100" width="26.7" height="80"/>
	<rect x="26.7" y="200.1" fill="#FFC200" width="26.7" height="80"/>
	<rect x="900" y="40" fill="#D33131" width="80" height="40"/>
	<rect x="900" y="0" fill="#FFFFFF" width="80" height="40"/>
	<rect x="100" y="253.6" fill="#1CB0F6" width="80" height="26.5"/>
	<rect x="100" y="200.1" fill="#D33131" width="80" height="26.6"/>
	<rect x="100" y="226.7" fill="#FFFFFF" width="80" height="26.9"/>
	<rect y="200.1" fill="#1CB0F6" width="26.7" height="80"/>
	<rect x="53.4" y="200.1" fill="#D33131" width="26.7" height="80"/>
	<rect x="800" y="26.7" fill="#1CB0F6" width="80" height="26.7"/>
	<rect x="800" y="53.4" fill="#D33131" width="80" height="26.7"/>
	<rect x="800" y="0" fill="#FFFFFF" width="80" height="26.7"/>
	<polygon fill="#1CB0F6" points="827.2,100 854.5,100 854.5,146.6 840.8,141.5 827.2,146.4  "/>
	<polygon fill="#D33131" points="827.2,100 800,100 800,156 827.2,146.4  "/>
	<polygon fill="#FFFFFF" points="854.5,146.6 880,156 880,100 854.5,100  "/>
	<polygon fill="#FFC200" points="27.2,300.1 54.5,300.1 54.5,346.6 40.9,341.6 27.2,346.4  "/>
	<rect x="200" y="200.1" fill="#D33131" width="80" height="80"/>
	<polygon fill="#D33131" points="200.1,300.1 280,300.1 280,355.9 240.9,341.5 200.1,356  "/>
	<polygon fill="#1CB0F6" points="27.2,300.1 0,300.1 0,356.1 27.2,346.4  "/>
	<polygon fill="#D33131" points="54.5,346.6 80,356 80,300.1 54.5,300.1  "/>
	<polygon fill="#FFFFFF" points="127.2,300.1 154.5,300.1 154.5,346.6 140.9,341.6 127.2,346.4  "/>
	<polygon fill="#D33131" points="127.2,300.1 100,300.1 100,356.1 127.2,346.4  "/>
	<polygon fill="#1CB0F6" points="154.5,346.6 180,356 180,300.1 154.5,300.1  "/>
	<g>
		<rect x="700" y="400.1" fill="#D33131" width="80" height="13.6"/>
		<line fill="#D33131" x1="780" y1="413.7" x2="700" y2="413.7"/>
	</g>
	<g>
		<rect x="700" y="413.7" fill="#FFFFFF" width="80" height="13.8"/>
		<line fill="#FFFFFF" x1="780" y1="427.5" x2="700" y2="427.5"/>
	</g>
	<g>
		<rect x="700" y="452.5" fill="#FFFFFF" width="80" height="13.8"/>
		<line fill="#FFFFFF" x1="780" y1="466.3" x2="700" y2="466.3"/>
	</g>
	<g>
		<rect x="700" y="427.4" fill="#1CB0F6" width="80" height="25.2"/>
		<line fill="#1CB0F6" x1="780" y1="452.6" x2="700" y2="452.6"/>
	</g>
	<g>
		<rect x="700" y="466.3" fill="#D33131" width="80" height="13.7"/>
		<line fill="#D33131" x1="780" y1="480" x2="700" y2="480"/>
	</g>
	<rect y="453.6" fill="#7AC70C" width="80" height="26.5"/>
	<rect x="300" y="600.1" fill="#7AC70C" width="80" height="79.9"/>
	<rect y="400.1" fill="#FF9100" width="80" height="26.6"/>
	<rect x="200" y="600.1" fill="#FF9100" width="80" height="79.9"/>
	<rect y="426.7" fill="#FFFFFF" width="80" height="26.9"/>
	<polygon fill="#FFFFFF" points="27.2,500.1 54.5,500.1 54.5,546.6 40.9,541.6 27.2,546.4  "/>
	<polygon fill="#7AC70C" points="27.2,500.1 0,500.1 0,556.1 27.2,546.4  "/>
	<polygon fill="#FF9100" points="54.5,546.6 80,556 80,500.1 54.5,500.1  "/>
	<polygon fill="#D33131" points="900,100 940.8,100 940.8,141.5 900,156  "/>
	<polygon fill="#FFFFFF" points="627.2,100.1 654.5,100.1 654.5,146.7 640.8,141.6 627.2,146.5  "/>
	<polygon fill="#7AC70C" points="627.2,100.1 600,100.1 600,156.2 627.2,146.5  "/>
	<polygon fill="#FF9100" points="654.5,146.7 680,156.1 680,100.1 654.5,100.1  "/>
	<polygon fill="#FFFFFF" points="727.4,100 754.5,100 754.5,146.6 740.8,141.5 727.4,146.3  "/>
	<g>
		<path fill="#FFFFFF" d="M244.6,257.1c-10.1,0-18.3-8.2-18.3-18.3s8.2-18.3,18.3-18.3c4.1,0,8,1.4,11,3.7c-4.2-5-10.4-8.1-17.4-8.1    c-12.5,0-22.7,10.2-22.7,22.7s10.2,22.7,22.7,22.7c7,0,13.3-3.2,17.4-8.1C252.6,255.7,248.8,257.1,244.6,257.1z"/>
		<polygon fill="#FFFFFF" points="260.4,229.7 264.5,235.7 271.5,233.6 267.1,239.4 271.2,245.4 264.4,242.9 259.9,248.7     260.1,241.5 253.3,239 260.2,237   "/>
	</g>
	<g>
		<path fill="#FFFFFF" d="M253.9,341.3c-1.7,1.3-3.8,2.3-5.9,2.8l2.1,0.8C251.5,343.9,252.8,342.7,253.9,341.3z"/>
		<path fill="#FFFFFF" d="M239,309.4c-10.7,0-19.5,8.7-19.5,19.5c0,7.2,3.9,13.5,9.7,16.8l8.1-2.9c-5.1-2.6-8.6-7.9-8.6-14    c0-8.7,7-15.7,15.7-15.7c3.6,0,6.8,1.2,9.4,3.2C250.3,312.1,245,309.4,239,309.4z"/>
	</g>
	<polygon fill="#FFFFFF" points="258,321 261.5,326.2 267.5,324.4 263.7,329.3 267.2,334.4 261.4,332.4 257.6,337.3 257.7,331.1    251.9,329 257.8,327.2  "/>
	<rect x="300" y="400.1" fill="#D33131" width="80" height="80"/>
	<rect x="400" y="200.1" fill="#FFFFFF" width="80" height="80"/>
	<polygon fill="#D33131" points="727.4,100 700,100 700,156 727.4,146.3  "/>
	<polygon fill="#7AC70C" points="779.9,155.9 779.9,100 754.5,100 754.5,146.6  "/>
	<rect x="900" y="226.9" fill="#FFFFFF" width="80" height="26.4"/>
	<rect x="900" y="200" fill="#D33131" width="80" height="26.9"/>
	<rect x="900" y="253.2" fill="#262626" width="80" height="26.9"/>
	<polygon fill="#FFFFFF" points="927.4,300 954.5,300 954.5,346.6 940.8,341.5 927.4,346.3  "/>
	<polygon fill="#D33131" points="927.4,300 900,300 900,356 927.4,346.3  "/>
	<polygon fill="#262626" points="979.9,355.9 979.9,300 954.5,300 954.5,346.6  "/>
	<polygon fill="#FFFFFF" points="940.8,141.5 940.8,141.5 980,156 980,100 940.8,100  "/>
	<polygon fill="#1CB0F6" points="800,400 800,440 800,480 880,480 880,440 880,400  "/>
	<polygon fill="#D33131" points="500,400 500,440 500,480 580,480 580,440 580,400  "/>
	<polygon fill="#D33131" points="540.8,500 540.8,500 500,500 500,556 540.8,541.5 540.8,541.5 540.8,541.5 580,556 580,500  "/>
	<rect x="500" y="240" fill="#FFC200" width="80" height="40"/>
	<rect x="500" y="200" fill="#1CB0F6" width="80" height="40"/>
	<polygon fill="#1CB0F6" points="500,300 540.8,300 540.8,341.5 500,356  "/>
	<polygon fill="#FFC200" points="540.8,341.5 540.8,341.5 580,356 580,300 540.8,300  "/>
	<polygon fill="#1CB0F6" points="400,600 400,640 400,680 480,680 480,640 480,600  "/>
	<rect x="300" y="240" fill="#FFFFFF" width="80" height="40"/>
	<rect x="300" y="200" fill="#D33131" width="80" height="40"/>
	<polygon fill="#FFFFFF" points="300,300 340.8,300 340.8,341.5 300,356  "/>
	<polygon fill="#D33131" points="340.8,341.5 340.8,341.5 380,356 380,300 340.8,300  "/>
	<path fill="#FFC200" d="M357.8,434.8L357.8,434.8h-12.5l-3.8-11.8c-0.1-0.4-0.6-0.7-1-0.7s-0.9,0.3-1,0.7l-3.8,11.8h-12.5   c-0.5,0-0.9,0.3-1,0.7c-0.1,0.4,0,0.9,0.4,1.2l10.1,7.3l-3.8,11.8c-0.1,0.4,0,0.9,0.4,1.2c0.2,0.1,0.4,0.2,0.6,0.2   c0.2,0,0.4-0.1,0.6-0.2l10.1-7.3l10.1,7.3c0.2,0.1,0.4,0.2,0.6,0.2c0.2,0,0.4-0.1,0.6-0.2c0.4-0.3,0.5-0.8,0.4-1.2l-3.8-11.8   l10.1-7.3c0.3-0.2,0.5-0.5,0.5-0.9C358.9,435.3,358.4,434.8,357.8,434.8z"/>
	<path fill="#FFC200" d="M357.8,526.8L357.8,526.8h-12.5l-3.8-11.8c-0.1-0.4-0.6-0.7-1-0.7c-0.5,0-0.9,0.3-1,0.7l-3.8,11.8h-12.5   c-0.5,0-0.9,0.3-1,0.7c-0.1,0.4,0,0.9,0.4,1.2l10.1,7.3l-3.1,9.5l11.4-4l10.5,3.9l-3-9.3l10.1-7.3c0.3-0.2,0.5-0.5,0.5-0.9   C358.9,527.3,358.4,526.8,357.8,526.8z"/>
	<path fill="#D33131" d="M300.1,500.1V556l29.4-10.4l3.1-9.5l-10.1-7.3c-0.4-0.3-0.5-0.8-0.4-1.2c0.1-0.4,0.6-0.7,1-0.7h12.5   l3.8-11.8c0.1-0.4,0.6-0.7,1-0.7c0.5,0,0.9,0.3,1,0.7l3.8,11.8h12.5h0c0.6,0,1.1,0.5,1.1,1.1c0,0.4-0.2,0.7-0.5,0.9l-10.1,7.3   l3,9.3l28.6,10.6v-55.9H300.1z"/>
	<rect y="600.1" fill="#D33131" width="80" height="80"/>
	<path fill="#D33131" d="M57.8,726.8"/>
	<g>
		<path fill="#FFC200" d="M511,429.1c0,0-0.1,0-0.1,0c-0.1-0.1-0.1-0.2-0.1-0.3l1.7-5.4l-4.6-3.3c-0.1-0.1-0.1-0.2-0.1-0.3    s0.1-0.2,0.2-0.2h5.6l1.7-5.4c0-0.1,0.1-0.2,0.2-0.2c0.1,0,0.2,0.1,0.2,0.2l1.7,5.4h5.6c0.1,0,0.2,0.1,0.2,0.2    c0,0.1,0,0.2-0.1,0.3l-4.6,3.3l1.7,5.4c0,0.1,0,0.2-0.1,0.3c0,0-0.1,0-0.1,0s-0.1,0-0.1,0l-4.6-3.3l-4.6,3.3    C511.1,429.1,511.1,429.1,511,429.1z"/>
		<path fill="#FFC200" d="M515.7,414.4l1.8,5.5h5.8l-4.7,3.4l1.8,5.5l-4.7-3.4l-4.7,3.4l1.8-5.5l-4.7-3.4h5.8L515.7,414.4     M523.3,420L523.3,420 M515.7,414c-0.2,0-0.4,0.1-0.4,0.3l-1.7,5.2h-5.5c-0.2,0-0.4,0.1-0.4,0.3c-0.1,0.2,0,0.4,0.2,0.5l4.4,3.2    l-1.7,5.2c-0.1,0.2,0,0.4,0.2,0.5c0.1,0.1,0.2,0.1,0.3,0.1s0.2,0,0.3-0.1l4.4-3.2l4.4,3.2c0.1,0.1,0.2,0.1,0.3,0.1s0.2,0,0.3-0.1    c0.2-0.1,0.2-0.3,0.2-0.5l-1.7-5.2l4.4-3.2c0.1-0.1,0.2-0.2,0.2-0.4c0-0.3-0.2-0.5-0.5-0.5h0h-5.5l-1.7-5.2    C516.1,414.1,515.9,414,515.7,414L515.7,414z"/>
	</g>
	<g>
		<path fill="#FFC200" d="M528.6,415.1c0,0-0.1,0-0.1-0.1l-0.9-2.6c0,0-2.7,0.1-2.7,0.1c0,0-0.1,0-0.1-0.1c0,0,0-0.1,0-0.1l2.2-1.7    l-0.9-2.6c0,0,0-0.1,0-0.1c0,0,0,0,0.1,0c0,0,0,0,0.1,0l2.3,1.5l2.2-1.7c0,0,0,0,0.1,0c0,0,0,0,0.1,0c0,0,0.1,0.1,0,0.1l-0.8,2.6    l2.3,1.5c0,0,0.1,0.1,0,0.1c0,0-0.1,0.1-0.1,0.1l-2.7,0.1l-0.8,2.6C528.7,415,528.7,415.1,528.6,415.1    C528.7,415.1,528.6,415.1,528.6,415.1z"/>
		<path fill="#FFC200" d="M530.7,407.9l-0.8,2.7l2.3,1.6l-2.8,0.1l-0.8,2.7l-0.9-2.7l-2.8,0.1l2.2-1.7l-0.9-2.7l2.3,1.6L530.7,407.9     M530.7,407.7c0,0-0.1,0-0.1,0l-2.1,1.6l-2.2-1.5c0,0-0.1,0-0.1,0c0,0-0.1,0-0.1,0c-0.1,0.1-0.1,0.2-0.1,0.3l0.9,2.5l-2.1,1.6    c-0.1,0.1-0.1,0.2-0.1,0.3c0,0.1,0.1,0.2,0.2,0.2c0,0,0,0,0,0l2.7-0.1l0.9,2.5c0,0.1,0.1,0.2,0.2,0.2c0,0,0,0,0,0    c0.1,0,0.2-0.1,0.2-0.2l0.7-2.5l2.7-0.1c0.1,0,0.2-0.1,0.2-0.2c0-0.1,0-0.2-0.1-0.3l-2.2-1.5l0.7-2.5c0-0.1,0-0.2-0.1-0.3    C530.8,407.7,530.8,407.7,530.7,407.7L530.7,407.7z"/>
	</g>
	<g>
		<path fill="#FFC200" d="M535.1,422.3c0,0-0.1-0.1-0.1-0.1l-0.1-2.7l-2.6-0.7c0,0-0.1-0.1-0.1-0.1c0,0,0-0.1,0.1-0.1l2.6-1    l-0.1-2.7c0,0,0-0.1,0.1-0.1c0,0,0,0,0,0c0,0,0.1,0,0.1,0l1.7,2.1l2.6-1c0,0,0,0,0,0c0,0,0.1,0,0.1,0c0,0,0,0.1,0,0.1l-1.5,2.3    l1.7,2.1c0,0,0,0.1,0,0.1c0,0-0.1,0.1-0.1,0.1c0,0,0,0,0,0l-2.6-0.7l-1.5,2.3C535.2,422.3,535.2,422.3,535.1,422.3    C535.2,422.3,535.1,422.3,535.1,422.3z"/>
		<path fill="#FFC200" d="M534.8,414.8l1.8,2.2l2.6-1l-1.5,2.4l1.8,2.2l-2.7-0.7l-1.5,2.4l-0.1-2.8l-2.7-0.7l2.6-1L534.8,414.8     M539.2,416L539.2,416 M534.8,414.6C534.8,414.6,534.7,414.6,534.8,414.6c-0.2,0.1-0.2,0.1-0.2,0.2l0.1,2.7l-2.5,0.9    c-0.1,0-0.2,0.1-0.1,0.2c0,0.1,0.1,0.2,0.2,0.2l2.6,0.7l0.1,2.7c0,0.1,0.1,0.2,0.2,0.2c0,0,0,0,0.1,0c0.1,0,0.1,0,0.2-0.1l1.5-2.2    l2.6,0.7c0,0,0,0,0.1,0c0.1,0,0.1,0,0.2-0.1c0.1-0.1,0-0.2,0-0.3l-1.7-2.1l1.4-2.2c0,0,0.1-0.1,0.1-0.1c0-0.1-0.1-0.2-0.2-0.2h0    c0,0,0,0,0,0c0,0,0,0,0,0c0,0,0,0-0.1,0l-2.5,0.9l-1.7-2.1C534.9,414.6,534.9,414.6,534.8,414.6L534.8,414.6z"/>
	</g>
	<g>
		<path fill="#FFC200" d="M538.3,432.1C538.3,432.1,538.3,432.1,538.3,432.1l-2.3-1.6l-2.2,1.6c0,0,0,0-0.1,0c0,0,0,0-0.1,0    c0,0-0.1-0.1,0-0.1l0.8-2.6l-2.2-1.6c0,0-0.1-0.1,0-0.1c0,0,0.1-0.1,0.1-0.1h2.7l0.8-2.6c0,0,0.1-0.1,0.1-0.1l0,0    c0.1,0,0.1,0,0.1,0.1l0.8,2.6h2.7c0,0,0.1,0,0.1,0.1c0,0,0,0.1,0,0.1l-2.2,1.6l0.8,2.6C538.5,432,538.4,432.1,538.3,432.1    C538.4,432.1,538.4,432.1,538.3,432.1z"/>
		<path fill="#FFC200" d="M536.1,425l0.9,2.7h2.8l-2.3,1.7l0.9,2.7l-2.3-1.7l-2.3,1.7l0.9-2.7l-2.3-1.7h2.8L536.1,425 M539.7,427.7    L539.7,427.7 M536.1,424.8c-0.1,0-0.2,0.1-0.2,0.2l-0.8,2.5h-2.7c-0.1,0-0.2,0.1-0.2,0.2c0,0.1,0,0.2,0.1,0.3l2.1,1.6l-0.8,2.5    c0,0.1,0,0.2,0.1,0.3c0,0,0.1,0,0.1,0c0,0,0.1,0,0.1,0l2.1-1.6l2.1,1.6c0,0,0.1,0,0.1,0c0,0,0.1,0,0.1,0c0.1-0.1,0.1-0.2,0.1-0.3    l-0.8-2.5l2.1-1.6c0.1,0,0.1-0.1,0.1-0.2c0-0.1-0.1-0.2-0.2-0.2h0h-2.7l-0.8-2.5C536.2,424.8,536.1,424.8,536.1,424.8L536.1,424.8    z"/>
	</g>
	<polygon fill="#FFC200" points="480,433.9 433,433.9 433,400 418.3,400 418.3,433.9 400,433.9 400,448.6 418.3,448.6 418.3,480.1    433,480.1 433,448.6 480,448.6  "/>
	<polygon fill="#1CB0F6" points="433,400.1 433,433.9 480,433.9 480,448.6 433,448.6 433,480.1 418.3,480.1 418.3,448.6 400,448.6    400,433.9 418.3,433.9 418.3,400.1 400,400.1 400,480.1 480,480.1 480,400.1  "/>
	<polygon fill="#FFC200" points="480,518.9 433,518.9 433,500 418.3,500 418.3,518.9 400,518.9 400,533.6 418.3,533.6 418.3,549.5    433,544.3 433,533.6 480,533.6  "/>
	<g>
		<polygon fill="#1CB0F6" points="433,544.3 440.8,541.5 440.8,541.5 480,556 480,533.6 433,533.6   "/>
		<polygon fill="#1CB0F6" points="418.3,549.5 418.3,533.6 400,533.6 400,518.9 418.3,518.9 418.3,500 400,500 400,556 430.9,545.1       "/>
		<polygon fill="#1CB0F6" points="440.8,500 440.8,500 433,500 433,518.9 480,518.9 480,500   "/>
	</g>
	<polygon fill="#FFFFFF" points="180,633.9 133,633.9 133,600 118.3,600 118.3,633.9 100,633.9 100,648.6 118.3,648.6 118.3,680.1    133,680.1 133,648.6 180,648.6  "/>
	<g>
		<path fill="#FFC200" d="M527.2,440.1c0,0-0.1,0-0.1-0.1l-1.3-2.4c0,0-2.7,0.5-2.7,0.5c0,0-0.1,0-0.1-0.1c0,0,0-0.1,0-0.1l1.9-2    l-1.3-2.4c0,0,0-0.1,0-0.1c0,0,0.1,0,0.1,0c0,0,0,0,0,0l2.5,1.2l1.9-2c0,0,0.1,0,0.1,0c0,0,0,0,0,0c0,0,0.1,0.1,0.1,0.1l-0.4,2.7    l2.5,1.2c0,0,0.1,0.1,0.1,0.1c0,0,0,0.1-0.1,0.1l-2.7,0.5l-0.4,2.7C527.3,440,527.3,440.1,527.2,440.1    C527.2,440.1,527.2,440.1,527.2,440.1z"/>
		<path fill="#FFC200" d="M528.2,432.6l-0.4,2.8l2.5,1.2l-2.8,0.5l-0.4,2.8l-1.3-2.5l-2.8,0.5l1.9-2l-1.3-2.5l2.5,1.2L528.2,432.6     M528.2,432.4c-0.1,0-0.1,0-0.2,0.1l-1.8,1.9l-2.4-1.1c0,0-0.1,0-0.1,0c-0.1,0-0.1,0-0.2,0.1c-0.1,0.1-0.1,0.2,0,0.3l1.3,2.3    l-1.8,1.9c-0.1,0.1-0.1,0.2,0,0.3c0,0.1,0.1,0.1,0.2,0.1c0,0,0,0,0,0l2.6-0.5l1.3,2.3c0,0.1,0.1,0.1,0.2,0.1c0,0,0,0,0,0    c0.1,0,0.2-0.1,0.2-0.2l0.4-2.6l2.6-0.5c0.1,0,0.2-0.1,0.2-0.2c0-0.1,0-0.2-0.1-0.2l-2.4-1.1l0.4-2.6    C528.4,432.6,528.4,432.5,528.2,432.4C528.2,432.4,528.2,432.4,528.2,432.4L528.2,432.4z"/>
	</g>
	<g>
		<path fill="#FFC200" d="M511,527.1c0,0-0.1,0-0.1,0c-0.1-0.1-0.1-0.2-0.1-0.3l1.7-5.4l-4.6-3.3c-0.1-0.1-0.1-0.2-0.1-0.3    c0-0.1,0.1-0.2,0.2-0.2h5.6l1.7-5.4c0-0.1,0.1-0.2,0.2-0.2c0.1,0,0.2,0.1,0.2,0.2l1.7,5.4h5.6c0.1,0,0.2,0.1,0.2,0.2    s0,0.2-0.1,0.3l-4.6,3.3l1.7,5.4c0,0.1,0,0.2-0.1,0.3c0,0-0.1,0-0.1,0s-0.1,0-0.1,0l-4.6-3.3l-4.6,3.3    C511.1,527.1,511.1,527.1,511,527.1z"/>
		<path fill="#FFC200" d="M515.7,512.4l1.8,5.5h5.8l-4.7,3.4l1.8,5.5l-4.7-3.4l-4.7,3.4l1.8-5.5l-4.7-3.4h5.8L515.7,512.4     M523.3,518L523.3,518 M515.7,512c-0.2,0-0.4,0.1-0.4,0.3l-1.7,5.2h-5.5c-0.2,0-0.4,0.1-0.4,0.3s0,0.4,0.2,0.5l4.4,3.2l-1.7,5.2    c-0.1,0.2,0,0.4,0.2,0.5c0.1,0.1,0.2,0.1,0.3,0.1s0.2,0,0.3-0.1l4.4-3.2l4.4,3.2c0.1,0.1,0.2,0.1,0.3,0.1s0.2,0,0.3-0.1    c0.2-0.1,0.2-0.3,0.2-0.5l-1.7-5.2l4.4-3.2c0.1-0.1,0.2-0.2,0.2-0.4c0-0.3-0.2-0.5-0.5-0.5h0h-5.5l-1.7-5.2    C516.1,512.1,515.9,512,515.7,512L515.7,512z"/>
	</g>
	<polygon fill="#FFFFFF" points="180,718.9 133,718.9 133,700 118.3,700 118.3,718.9 100,718.9 100,733.6 118.3,733.6 118.3,749.5    133,744.3 133,733.6 180,733.6  "/>
	<polygon fill="#D33131" points="100,718.9 118.3,718.9 118.3,700 100,700 100,718.9  "/>
	<polygon fill="#D33131" points="118.3,749.5 118.3,733.6 100,733.6 100,733.6 100,756 118.3,749.5  "/>
	<polygon fill="#D33131" points="133,744.3 140.8,741.5 140.8,741.5 180,756 180,733.6 133,733.6  "/>
	<polygon fill="#D33131" points="133,718.9 180,718.9 180,700 140.8,700 140.8,700 133,700  "/>
	<g>
		<polygon fill="#D33131" points="133,633.9 180,633.9 180,633.9 180,600.1 133,600.1   "/>
		<polygon fill="#D33131" points="100,633.9 118.3,633.9 118.3,600.1 100,600.1 100,633.9   "/>
		<polygon fill="#D33131" points="180,648.6 133,648.6 133,680.1 133,680.1 180,680.1 180,648.6   "/>
		<polygon fill="#D33131" points="118.3,680.1 118.3,648.6 100,648.6 100,648.6 100,680.1 118.3,680.1   "/>
	</g>
	<g>
		<path fill="#FFC200" d="M528.6,513.1c0,0-0.1,0-0.1-0.1l-0.9-2.6c0,0-2.7,0.1-2.7,0.1c0,0-0.1,0-0.1-0.1c0,0,0-0.1,0-0.1l2.2-1.7    l-0.9-2.6c0,0,0-0.1,0-0.1c0,0,0,0,0.1,0c0,0,0,0,0.1,0l2.3,1.5l2.2-1.7c0,0,0,0,0.1,0c0,0,0,0,0.1,0c0,0,0.1,0.1,0,0.1l-0.8,2.6    l2.3,1.5c0,0,0.1,0.1,0,0.1c0,0-0.1,0.1-0.1,0.1l-2.7,0.1l-0.8,2.6C528.7,513,528.7,513.1,528.6,513.1    C528.7,513.1,528.6,513.1,528.6,513.1z"/>
		<path fill="#FFC200" d="M530.7,505.9l-0.8,2.7l2.3,1.6l-2.8,0.1l-0.8,2.7l-0.9-2.7l-2.8,0.1l2.2-1.7l-0.9-2.7l2.3,1.6L530.7,505.9     M530.7,505.7c0,0-0.1,0-0.1,0l-2.1,1.6l-2.2-1.5c0,0-0.1,0-0.1,0c0,0-0.1,0-0.1,0c-0.1,0.1-0.1,0.2-0.1,0.3l0.9,2.5l-2.1,1.6    c-0.1,0.1-0.1,0.2-0.1,0.3c0,0.1,0.1,0.2,0.2,0.2c0,0,0,0,0,0l2.7-0.1l0.9,2.5c0,0.1,0.1,0.2,0.2,0.2c0,0,0,0,0,0    c0.1,0,0.2-0.1,0.2-0.2l0.7-2.5l2.7-0.1c0.1,0,0.2-0.1,0.2-0.2c0-0.1,0-0.2-0.1-0.3l-2.2-1.5l0.7-2.5c0-0.1,0-0.2-0.1-0.3    C530.8,505.7,530.8,505.7,530.7,505.7L530.7,505.7z"/>
	</g>
	<g>
		<path fill="#FFC200" d="M535.1,520.3c0,0-0.1-0.1-0.1-0.1l-0.1-2.7l-2.6-0.7c0,0-0.1-0.1-0.1-0.1c0,0,0-0.1,0.1-0.1l2.6-1    l-0.1-2.7c0,0,0-0.1,0.1-0.1c0,0,0,0,0,0c0,0,0.1,0,0.1,0l1.7,2.1l2.6-1c0,0,0,0,0,0c0,0,0.1,0,0.1,0c0,0,0,0.1,0,0.1l-1.5,2.3    l1.7,2.1c0,0,0,0.1,0,0.1c0,0-0.1,0.1-0.1,0.1c0,0,0,0,0,0l-2.6-0.7l-1.5,2.3C535.2,520.3,535.2,520.3,535.1,520.3    C535.2,520.3,535.1,520.3,535.1,520.3z"/>
		<path fill="#FFC200" d="M534.8,512.8l1.8,2.2l2.6-1l-1.5,2.4l1.8,2.2l-2.7-0.7l-1.5,2.4l-0.1-2.8l-2.7-0.7l2.6-1L534.8,512.8     M539.2,514L539.2,514 M534.8,512.6C534.8,512.6,534.7,512.6,534.8,512.6c-0.2,0.1-0.2,0.1-0.2,0.2l0.1,2.7l-2.5,0.9    c-0.1,0-0.2,0.1-0.1,0.2c0,0.1,0.1,0.2,0.2,0.2l2.6,0.7l0.1,2.7c0,0.1,0.1,0.2,0.2,0.2c0,0,0,0,0.1,0c0.1,0,0.1,0,0.2-0.1l1.5-2.2    l2.6,0.7c0,0,0,0,0.1,0c0.1,0,0.1,0,0.2-0.1c0.1-0.1,0-0.2,0-0.3l-1.7-2.1l1.4-2.2c0,0,0.1-0.1,0.1-0.1c0-0.1-0.1-0.2-0.2-0.2h0    c0,0,0,0,0,0c0,0,0,0,0,0c0,0,0,0-0.1,0l-2.5,0.9l-1.7-2.1C534.9,512.6,534.9,512.6,534.8,512.6L534.8,512.6z"/>
	</g>
	<g>
		<path fill="#FFC200" d="M538.3,530.1C538.3,530.1,538.3,530.1,538.3,530.1l-2.3-1.6l-2.2,1.6c0,0,0,0-0.1,0c0,0,0,0-0.1,0    c0,0-0.1-0.1,0-0.1l0.8-2.6l-2.2-1.6c0,0-0.1-0.1,0-0.1c0,0,0.1-0.1,0.1-0.1h2.7l0.8-2.6c0,0,0.1-0.1,0.1-0.1l0,0    c0.1,0,0.1,0,0.1,0.1l0.8,2.6h2.7c0,0,0.1,0,0.1,0.1c0,0,0,0.1,0,0.1l-2.2,1.6l0.8,2.6C538.5,530,538.4,530.1,538.3,530.1    C538.4,530.1,538.4,530.1,538.3,530.1z"/>
		<path fill="#FFC200" d="M536.1,523l0.9,2.7h2.8l-2.3,1.7l0.9,2.7l-2.3-1.7l-2.3,1.7l0.9-2.7l-2.3-1.7h2.8L536.1,523 M539.7,525.7    L539.7,525.7 M536.1,522.8c-0.1,0-0.2,0.1-0.2,0.2l-0.8,2.5h-2.7c-0.1,0-0.2,0.1-0.2,0.2c0,0.1,0,0.2,0.1,0.3l2.1,1.6l-0.8,2.5    c0,0.1,0,0.2,0.1,0.3c0,0,0.1,0,0.1,0c0,0,0.1,0,0.1,0l2.1-1.6l2.1,1.6c0,0,0.1,0,0.1,0c0,0,0.1,0,0.1,0c0.1-0.1,0.1-0.2,0.1-0.3    l-0.8-2.5l2.1-1.6c0.1,0,0.1-0.1,0.1-0.2c0-0.1-0.1-0.2-0.2-0.2h0h-2.7l-0.8-2.5C536.2,522.8,536.1,522.8,536.1,522.8L536.1,522.8    z"/>
	</g>
	<g>
		<path fill="#FFC200" d="M527.2,538.1c0,0-0.1,0-0.1-0.1l-1.3-2.4c0,0-2.7,0.5-2.7,0.5c0,0-0.1,0-0.1-0.1c0,0,0-0.1,0-0.1l1.9-2    l-1.3-2.4c0,0,0-0.1,0-0.1c0,0,0.1,0,0.1,0c0,0,0,0,0,0l2.5,1.2l1.9-2c0,0,0.1,0,0.1,0c0,0,0,0,0,0c0,0,0.1,0.1,0.1,0.1l-0.4,2.7    l2.5,1.2c0,0,0.1,0.1,0.1,0.1c0,0,0,0.1-0.1,0.1l-2.7,0.5l-0.4,2.7C527.3,538,527.3,538.1,527.2,538.1    C527.2,538.1,527.2,538.1,527.2,538.1z"/>
		<path fill="#FFC200" d="M528.2,530.6l-0.4,2.8l2.5,1.2l-2.8,0.5l-0.4,2.8l-1.3-2.5l-2.8,0.5l1.9-2l-1.3-2.5l2.5,1.2L528.2,530.6     M528.2,530.4c-0.1,0-0.1,0-0.2,0.1l-1.8,1.9l-2.4-1.1c0,0-0.1,0-0.1,0c-0.1,0-0.1,0-0.2,0.1c-0.1,0.1-0.1,0.2,0,0.3l1.3,2.3    l-1.8,1.9c-0.1,0.1-0.1,0.2,0,0.3c0,0.1,0.1,0.1,0.2,0.1c0,0,0,0,0,0l2.6-0.5l1.3,2.3c0,0.1,0.1,0.1,0.2,0.1c0,0,0,0,0,0    c0.1,0,0.2-0.1,0.2-0.2l0.4-2.6l2.6-0.5c0.1,0,0.2-0.1,0.2-0.2s0-0.2-0.1-0.2l-2.4-1.1l0.4-2.6    C528.4,530.6,528.4,530.5,528.2,530.4C528.2,530.4,528.2,530.4,528.2,530.4L528.2,530.4z"/>
	</g>
	<circle fill="#1CB0F6" cx="339.8" cy="40.8" r="16.2"/>
	<path fill="#FFFFFF" d="M324,36.9c-0.3,1.2-0.5,2.5-0.5,3.9c0,0.5,0,1.1,0.1,1.6c4-1,8.6-1.6,13.3-1.6c7,0,13.5,1.3,18.6,3.4   c0.2-1.1,0.4-2.2,0.4-3.4c0-0.7-0.1-1.3-0.1-2c-5.2-2.2-11.7-3.4-18.9-3.4C332.3,35.4,328,35.9,324,36.9z"/>
	<circle fill="#FFFFFF" cx="345.1" cy="32.5" r="1"/>
	<circle fill="#FFFFFF" cx="330.3" cy="44.6" r="1"/>
	<circle fill="#FFFFFF" cx="335.4" cy="43.9" r="0.8"/>
	<circle fill="#FFFFFF" cx="332.7" cy="47.9" r="0.8"/>
	<circle fill="#FFFFFF" cx="348.9" cy="49.3" r="0.8"/>
	<circle fill="#FFFFFF" cx="350.8" cy="46.3" r="0.8"/>
	<path fill="#FFCE00" d="M340.5,102.3c-0.2-0.1-0.4-0.1-0.6,0l-36.5,28.8c-0.1,0.1-0.2,0.2-0.2,0.4s0.1,0.3,0.2,0.4l20.1,15.8   l17.4-6.2l16.3,6l19.9-15.6c0.1-0.1,0.2-0.2,0.2-0.4s-0.1-0.3-0.2-0.4L340.5,102.3z"/>
	<path fill="#1CB0F6" d="M339.8,114.6c-8.9,0-16.2,7.3-16.2,16.2c0,6,3.3,11.2,8.1,14l9.2-3.3l7.7,2.8c4.5-2.9,7.4-7.9,7.4-13.6   C355.9,121.8,348.7,114.6,339.8,114.6z"/>
	<path fill="#FFFFFF" d="M324,126.9c-0.3,1.2-0.5,2.5-0.5,3.9c0,0.5,0,1.1,0.1,1.6c4-1,8.6-1.6,13.3-1.6c7,0,13.5,1.3,18.6,3.4   c0.2-1.1,0.4-2.2,0.4-3.4c0-0.7-0.1-1.3-0.1-2c-5.2-2.2-11.7-3.4-18.9-3.4C332.3,125.4,328,125.9,324,126.9z"/>
	<circle fill="#FFFFFF" cx="345.1" cy="122.5" r="1"/>
	<circle fill="#FFFFFF" cx="330.3" cy="134.6" r="1"/>
	<circle fill="#FFFFFF" cx="335.4" cy="133.9" r="0.8"/>
	<circle fill="#FFFFFF" cx="332.7" cy="137.9" r="0.8"/>
	<circle fill="#FFFFFF" cx="348.9" cy="139.3" r="0.8"/>
	<circle fill="#FFFFFF" cx="350.8" cy="136.3" r="0.8"/>
	<g>
		<path fill="#FFFFFF" stroke="#FFFFFF" stroke-width="3.3349" stroke-miterlimit="10" d="M835.4,447.9v-1    c0-8.2,10.6-10.3,10.6-16.8c0-3-2.7-5.3-6.2-5.3c-1.9,0-3.6,0.7-4.7,1.3c-1.5,0.8-3,0.8-3.9-0.6l-1.1-1.6c-1-1.4-1-2.6,0.4-3.6    c1.9-1.3,5.4-3,9.9-3c7.3,0,14.1,4.5,14.1,12.1c0,10.1-10.4,11.8-11.2,18.3l-0.1,1.1c-0.3,1.3-1,1.9-2.6,1.9h-2.6    C836.4,450.6,835.4,449.7,835.4,447.9z M835.4,458.8c0-1.7,1-2.7,2.7-2.7h2.6c1.7,0,2.6,1,2.6,2.7v2.2c0,1.8-0.9,2.7-2.6,2.7h-2.6    c-1.7,0-2.7-0.9-2.7-2.7V458.8z"/>
	</g>
	<circle fill="none" stroke="#1CB0F6" stroke-width="1.9204" stroke-miterlimit="10" cx="40.7" cy="441.3" r="8"/>
	<polygon fill="#1CB0F6" points="40.6,434.1 41,438.6 42.8,434.5 41.8,438.8 44.8,435.5 42.5,439.3 46.4,437.1 43,440 47.4,439.1    43.3,440.8 47.7,441.3 43.3,441.7 47.4,443.5 43,442.5 46.4,445.5 42.5,443.2 44.8,447 41.8,443.7 42.8,448 41,444 40.6,448.4    40.2,444 38.4,448 39.4,443.7 36.4,447 38.7,443.2 34.8,445.5 38.2,442.5 33.8,443.5 37.9,441.7 33.5,441.3 37.9,440.8 33.8,439.1    38.2,440 34.8,437.1 38.7,439.3 36.4,435.5 39.4,438.8 38.4,434.5 40.2,438.6  "/>
	<circle fill="none" stroke="#1CB0F6" stroke-width="1.9204" stroke-miterlimit="10" cx="40.7" cy="524.5" r="8"/>
	<polygon fill="#1CB0F6" points="40.6,517.3 41,521.8 42.8,517.7 41.8,522 44.8,518.7 42.5,522.5 46.4,520.3 43,523.2 47.4,522.2    43.3,524 47.7,524.4 43.3,524.9 47.4,526.7 43,525.7 46.4,528.6 42.5,526.4 44.8,530.2 41.8,526.9 42.8,531.2 41,527.1 40.6,531.6    40.2,527.1 38.4,531.2 39.4,526.9 36.4,530.2 38.7,526.4 34.8,528.6 38.2,525.7 33.8,526.7 37.9,524.9 33.5,524.4 37.9,524    33.8,522.2 38.2,523.2 34.8,520.3 38.7,522.5 36.4,518.7 39.4,522 38.4,517.7 40.2,521.8  "/>
	<path fill="#1CB0F6" d="M149.5,441l4.7-8.1h-9.3l-4.5-7.7l-4.5,7.7h-9.3l4.7,8.1l-4.7,8.1h9.3l4.5,7.7l4.5-7.7h9.3L149.5,441z    M150,435.3l-1.9,3.3l-1.9-3.3H150z M146.7,441l-3.3,5.7h-6.2L134,441l3.3-5.7h6.2L146.7,441z M140.4,429.9l1.7,3h-3.4L140.4,429.9   z M130.7,435.3h3.8l-1.9,3.3L130.7,435.3z M130.7,446.7l1.9-3.3l1.9,3.3H130.7z M140.4,452l-1.7-3h3.4L140.4,452z M148.1,443.3   l1.9,3.3h-3.8L148.1,443.3z"/>
	<path fill="#1CB0F6" d="M147.9,524l3.9-6.7h-7.7l-3.7-6.4l-3.7,6.4h-7.7l3.9,6.7l-3.9,6.7h7.7l3.7,6.4l3.7-6.4h7.7L147.9,524z    M148.4,519.2l-1.6,2.8l-1.6-2.8H148.4z M145.7,524l-2.7,4.7h-5.1l-2.7-4.7l2.7-4.7h5.1L145.7,524z M140.4,514.8l1.4,2.5h-2.8   L140.4,514.8z M132.3,519.2h3.2l-1.6,2.8L132.3,519.2z M132.3,528.7l1.6-2.8l1.6,2.8H132.3z M140.4,533.1l-1.4-2.5h2.8L140.4,533.1   z M146.8,525.9l1.6,2.8h-3.2L146.8,525.9z"/>
	<path fill="#FFC200" d="M945.7,233.8c-2.3,0-2.9,1.8-3.9,1.8c0,0,0.2-3.8-1-3.8h-2.3c0,0-1.5,0.3-1.7,1.2c0.6-0.3,1.8-0.1,1.8,1.6   c0,0.4-0.3,0.7-0.5,0.9c-1-0.1-1.6-1.6-3.3-1.6c-1.8,0-2.2,1.5-2.2,2.2s0,7.8,0,7.8l5.3-0.8l-1.6,2.9l8.3,0.1l-1.9-3.1l5,1l0-8.7   C947.7,235.2,948,233.8,945.7,233.8z"/>
	<path fill="#FFC200" d="M946.4,319.6c-2.3,0-2.9,1.8-3.9,1.8c0,0,0.2-3.8-1-3.8h-2.3c0,0-1.5,0.3-1.7,1.2c0.6-0.3,1.8-0.1,1.8,1.6   c0,0.4-0.3,0.7-0.5,0.9c-1-0.1-1.6-1.6-3.3-1.6c-1.8,0-2.2,1.5-2.2,2.2s0,7.8,0,7.8l5.3-0.8l-1.6,2.9l8.3,0.1l-1.9-3.1l5,1l0-8.7   C948.4,321.1,948.7,319.6,946.4,319.6z"/>
	<g>
		<polygon fill="#D33131" points="540.5,40.3 500,40.3 500,50 580,50 580,40.3 540.5,40.3   "/>
		<rect x="500" y="60.3" fill="#D33131" width="80" height="9.7"/>
		<rect x="540.5" fill="#D33131" width="39.5" height="10"/>
		<rect x="540.5" y="20.3" fill="#D33131" width="39.5" height="9.7"/>
	</g>
	<rect x="540.5" y="30" fill="#FFFFFF" width="39.5" height="10.3"/>
	<rect x="540.5" y="10" fill="#FFFFFF" width="39.5" height="10.3"/>
	<polygon fill="#1CB0F6" points="540.6,100 500,100 500,156 540.6,141.6  "/>
	<rect x="500" y="50" fill="#FFFFFF" width="80" height="10.3"/>
	<rect x="500" y="70" fill="#FFFFFF" width="80" height="10"/>
	<g>
		<path fill="#FFFFFF" d="M511.7,107.4L511.7,107.4 M508.5,104.3c-0.4,0-0.7,0.2-0.8,0.6l-0.6,1.7h-1.8c-0.4,0-0.7,0.2-0.8,0.6    c-0.1,0.3,0,0.7,0.3,0.9l1.5,1.1l-0.6,1.7c-0.1,0.3,0,0.7,0.3,0.9c0.1,0.1,0.3,0.2,0.5,0.2c0.2,0,0.3-0.1,0.5-0.2l1.5-1.1l1.5,1.1    c0.1,0.1,0.3,0.2,0.5,0.2c0.2,0,0.3-0.1,0.5-0.2c0.3-0.2,0.4-0.6,0.3-0.9l-0.6-1.7l1.4-1c0.2-0.1,0.4-0.4,0.4-0.7    c0-0.5-0.4-0.8-0.8-0.8h0h-1.8l-0.6-1.7C509.2,104.5,508.9,104.3,508.5,104.3L508.5,104.3z"/>
	</g>
	<g>
		<path fill="#FFFFFF" d="M523.6,107.4L523.6,107.4 M520.4,104.3c-0.4,0-0.7,0.2-0.8,0.6l-0.6,1.7h-1.8c-0.4,0-0.7,0.2-0.8,0.6    c-0.1,0.3,0,0.7,0.3,0.9l1.5,1.1l-0.6,1.7c-0.1,0.3,0,0.7,0.3,0.9c0.1,0.1,0.3,0.2,0.5,0.2c0.2,0,0.3-0.1,0.5-0.2l1.5-1.1l1.5,1.1    c0.1,0.1,0.3,0.2,0.5,0.2c0.2,0,0.3-0.1,0.5-0.2c0.3-0.2,0.4-0.6,0.3-0.9l-0.6-1.7l1.4-1c0.2-0.1,0.4-0.4,0.4-0.7    c0-0.5-0.4-0.8-0.8-0.8h0h-1.8l-0.6-1.7C521.1,104.5,520.8,104.3,520.4,104.3L520.4,104.3z"/>
	</g>
	<g>
		<path fill="#FFFFFF" d="M535.4,107.4L535.4,107.4 M532.3,104.3c-0.4,0-0.7,0.2-0.8,0.6l-0.6,1.7h-1.8c-0.4,0-0.7,0.2-0.8,0.6    c-0.1,0.3,0,0.7,0.3,0.9l1.5,1.1l-0.6,1.7c-0.1,0.3,0,0.7,0.3,0.9c0.1,0.1,0.3,0.2,0.5,0.2c0.2,0,0.3-0.1,0.5-0.2l1.5-1.1l1.5,1.1    c0.1,0.1,0.3,0.2,0.5,0.2c0.2,0,0.3-0.1,0.5-0.2c0.3-0.2,0.4-0.6,0.3-0.9l-0.6-1.7l1.4-1c0.2-0.1,0.4-0.4,0.4-0.7    c0-0.5-0.4-0.8-0.8-0.8h0h-1.8l-0.6-1.7C532.9,104.5,532.6,104.3,532.3,104.3L532.3,104.3z"/>
	</g>
	<g>
		<path fill="#FFFFFF" d="M511.7,119.3L511.7,119.3 M508.5,116.2c-0.4,0-0.7,0.2-0.8,0.6l-0.6,1.7h-1.8c-0.4,0-0.7,0.2-0.8,0.6    c-0.1,0.3,0,0.7,0.3,0.9l1.5,1.1l-0.6,1.7c-0.1,0.3,0,0.7,0.3,0.9c0.1,0.1,0.3,0.2,0.5,0.2c0.2,0,0.3-0.1,0.5-0.2l1.5-1.1l1.5,1.1    c0.1,0.1,0.3,0.2,0.5,0.2c0.2,0,0.3-0.1,0.5-0.2c0.3-0.2,0.4-0.6,0.3-0.9l-0.6-1.7l1.4-1c0.2-0.1,0.4-0.4,0.4-0.7    c0-0.5-0.4-0.8-0.8-0.8h0h-1.8l-0.6-1.7C509.2,116.4,508.9,116.2,508.5,116.2L508.5,116.2z"/>
	</g>
	<g>
		<path fill="#FFFFFF" d="M523.6,119.3L523.6,119.3 M520.4,116.2c-0.4,0-0.7,0.2-0.8,0.6l-0.6,1.7h-1.8c-0.4,0-0.7,0.2-0.8,0.6    c-0.1,0.3,0,0.7,0.3,0.9l1.5,1.1l-0.6,1.7c-0.1,0.3,0,0.7,0.3,0.9c0.1,0.1,0.3,0.2,0.5,0.2c0.2,0,0.3-0.1,0.5-0.2l1.5-1.1l1.5,1.1    c0.1,0.1,0.3,0.2,0.5,0.2c0.2,0,0.3-0.1,0.5-0.2c0.3-0.2,0.4-0.6,0.3-0.9l-0.6-1.7l1.4-1c0.2-0.1,0.4-0.4,0.4-0.7    c0-0.5-0.4-0.8-0.8-0.8h0h-1.8l-0.6-1.7C521.1,116.4,520.8,116.2,520.4,116.2L520.4,116.2z"/>
	</g>
	<g>
		<path fill="#FFFFFF" d="M535.4,119.3L535.4,119.3 M532.3,116.2c-0.4,0-0.7,0.2-0.8,0.6l-0.6,1.7h-1.8c-0.4,0-0.7,0.2-0.8,0.6    c-0.1,0.3,0,0.7,0.3,0.9l1.5,1.1l-0.6,1.7c-0.1,0.3,0,0.7,0.3,0.9c0.1,0.1,0.3,0.2,0.5,0.2c0.2,0,0.3-0.1,0.5-0.2l1.5-1.1l1.5,1.1    c0.1,0.1,0.3,0.2,0.5,0.2c0.2,0,0.3-0.1,0.5-0.2c0.3-0.2,0.4-0.6,0.3-0.9l-0.6-1.7l1.4-1c0.2-0.1,0.4-0.4,0.4-0.7    c0-0.5-0.4-0.8-0.8-0.8h0h-1.8l-0.6-1.7C532.9,116.4,532.6,116.2,532.3,116.2L532.3,116.2z"/>
	</g>
	<g>
		<path fill="#FFFFFF" d="M511.7,131.1L511.7,131.1 M508.5,128c-0.4,0-0.7,0.2-0.8,0.6l-0.6,1.7h-1.8c-0.4,0-0.7,0.2-0.8,0.6    c-0.1,0.3,0,0.7,0.3,0.9l1.5,1.1l-0.6,1.7c-0.1,0.3,0,0.7,0.3,0.9c0.1,0.1,0.3,0.2,0.5,0.2c0.2,0,0.3-0.1,0.5-0.2l1.5-1.1l1.5,1.1    c0.1,0.1,0.3,0.2,0.5,0.2c0.2,0,0.3-0.1,0.5-0.2c0.3-0.2,0.4-0.6,0.3-0.9l-0.6-1.7l1.4-1c0.2-0.1,0.4-0.4,0.4-0.7    c0-0.5-0.4-0.8-0.8-0.8h0h-1.8l-0.6-1.7C509.2,128.3,508.9,128,508.5,128L508.5,128z"/>
	</g>
	<g>
		<path fill="#FFFFFF" d="M523.6,131.1L523.6,131.1 M520.4,128c-0.4,0-0.7,0.2-0.8,0.6l-0.6,1.7h-1.8c-0.4,0-0.7,0.2-0.8,0.6    c-0.1,0.3,0,0.7,0.3,0.9l1.5,1.1l-0.6,1.7c-0.1,0.3,0,0.7,0.3,0.9c0.1,0.1,0.3,0.2,0.5,0.2c0.2,0,0.3-0.1,0.5-0.2l1.5-1.1l1.5,1.1    c0.1,0.1,0.3,0.2,0.5,0.2c0.2,0,0.3-0.1,0.5-0.2c0.3-0.2,0.4-0.6,0.3-0.9l-0.6-1.7l1.4-1c0.2-0.1,0.4-0.4,0.4-0.7    c0-0.5-0.4-0.8-0.8-0.8h0h-1.8l-0.6-1.7C521.1,128.3,520.8,128,520.4,128L520.4,128z"/>
	</g>
	<g>
		<path fill="#FFFFFF" d="M535.4,131.1L535.4,131.1 M532.3,128c-0.4,0-0.7,0.2-0.8,0.6l-0.6,1.7h-1.8c-0.4,0-0.7,0.2-0.8,0.6    c-0.1,0.3,0,0.7,0.3,0.9l1.5,1.1l-0.6,1.7c-0.1,0.3,0,0.7,0.3,0.9c0.1,0.1,0.3,0.2,0.5,0.2c0.2,0,0.3-0.1,0.5-0.2l1.5-1.1l1.5,1.1    c0.1,0.1,0.3,0.2,0.5,0.2c0.2,0,0.3-0.1,0.5-0.2c0.3-0.2,0.4-0.6,0.3-0.9l-0.6-1.7l1.4-1c0.2-0.1,0.4-0.4,0.4-0.7    c0-0.5-0.4-0.8-0.8-0.8h0h-1.8l-0.6-1.7C532.9,128.3,532.6,128,532.3,128L532.3,128z"/>
	</g>
	<g>
		<path fill="#FFFFFF" d="M511.7,143.1L511.7,143.1 M508.5,140c-0.4,0-0.7,0.2-0.8,0.6l-0.6,1.7h-1.8c-0.4,0-0.7,0.2-0.8,0.6    c-0.1,0.3,0,0.7,0.3,0.9l1.5,1.1l-0.6,1.7c-0.1,0.3,0,0.7,0.3,0.9c0.1,0.1,0.3,0.2,0.5,0.2c0.2,0,0.3-0.1,0.5-0.2l1.5-1.1l1.5,1.1    c0.1,0.1,0.3,0.2,0.5,0.2c0.2,0,0.3-0.1,0.5-0.2c0.3-0.2,0.4-0.6,0.3-0.9l-0.6-1.7l1.4-1c0.2-0.1,0.4-0.4,0.4-0.7    c0-0.5-0.4-0.8-0.8-0.8h0h-1.8l-0.6-1.7C509.2,140.3,508.9,140,508.5,140L508.5,140z"/>
	</g>
	<g>
		<path fill="#FFFFFF" d="M523.6,143.1L523.6,143.1 M520.4,140c-0.4,0-0.7,0.2-0.8,0.6l-0.6,1.7h-1.8c-0.4,0-0.7,0.2-0.8,0.6    c-0.1,0.3,0,0.7,0.3,0.9l1.5,1.1l-0.6,1.7c-0.1,0.3,0,0.7,0.3,0.9c0.1,0.1,0.3,0.2,0.5,0.2c0.2,0,0.3-0.1,0.5-0.2l1.5-1.1l1.5,1.1    c0.1,0.1,0.3,0.2,0.5,0.2c0.2,0,0.3-0.1,0.5-0.2c0.3-0.2,0.4-0.6,0.3-0.9l-0.6-1.7l1.4-1c0.2-0.1,0.4-0.4,0.4-0.7    c0-0.5-0.4-0.8-0.8-0.8h0h-1.8l-0.6-1.7C521.1,140.3,520.8,140,520.4,140L520.4,140z"/>
	</g>
	<rect x="540.5" y="100" fill="#D33131" width="39.5" height="10"/>
	<rect x="540.5" y="120.3" fill="#D33131" width="39.5" height="9.7"/>
	<rect x="540.5" y="130" fill="#FFFFFF" width="39.5" height="10.3"/>
	<rect x="540.5" y="110" fill="#FFFFFF" width="39.5" height="10.3"/>
	<g>
		<polyline fill="#FFFFFF" points="580,156 563.7,150 580,150   "/>
	</g>
	<path fill="#FFFFFF" d="M530.1,144.9l-0.2,0.5l6.3-2.2c0,0,0,0,0,0c0-0.5-0.4-0.8-0.8-0.8h0h-1.8l-0.6-1.7   c-0.1-0.3-0.4-0.6-0.8-0.6c-0.4,0-0.7,0.2-0.8,0.6l-0.6,1.7h-1.8c-0.4,0-0.7,0.2-0.8,0.6c-0.1,0.3,0,0.7,0.3,0.9L530.1,144.9z"/>
	<polygon fill="#D33131" points="560.5,140.3 560.5,140.3 540.5,140.3 540.5,141.7 540.9,141.5 563.7,150 580,150 580,140.3  "/>
	<circle fill="#D33131" cx="440.3" cy="239" r="23.7"/>
	<path fill="#FFFFFF" d="M400.1,300.1V356l22.3-7.9c-3.2-4-5.1-9.1-5.1-14.7c0-13.1,10.6-23.7,23.7-23.7s23.7,10.6,23.7,23.7   c0,5.7-2,10.8-5.3,14.9l20.7,7.6v-55.9H400.1z"/>
	<path fill="#D33131" d="M441,309.7c-13.1,0-23.7,10.6-23.7,23.7c0,5.6,1.9,10.7,5.1,14.7l18.5-6.6l18.4,6.8   c3.3-4.1,5.3-9.3,5.3-14.9C464.6,320.3,454,309.7,441,309.7z"/>
	<rect x="200" y="400.1" fill="#FFFFFF" width="80" height="80"/>
	<rect x="800" y="200.1" fill="#7AC70C" width="80" height="80"/>
	<circle fill="#D33131" cx="840.3" cy="239" r="23.7"/>
	<path fill="#7AC70C" d="M800.1,300.1V356l22.3-7.9c-3.2-4-5.1-9.1-5.1-14.7c0-13.1,10.6-23.7,23.7-23.7s23.7,10.6,23.7,23.7   c0,5.7-2,10.8-5.3,14.9l20.7,7.6v-55.9H800.1z"/>
	<path fill="#D33131" d="M841,309.7c-13.1,0-23.7,10.6-23.7,23.7c0,5.6,1.9,10.7,5.1,14.7l18.5-6.6l18.4,6.8   c3.3-4.1,5.3-9.3,5.3-14.9C864.6,320.3,854,309.7,841,309.7z"/>
	<polyline fill="#FFFFFF" points="563.7,150 580,150 580,156.1  "/>
	<rect x="600" y="200" fill="#1CB0F6" width="40.6" height="40.3"/>
	<polygon fill="#1CB0F6" points="640.6,300 600,300 600,356 640.6,341.6  "/>
	<polygon fill="#D33131" points="640.5,200 640.5,210 640.5,210 640.5,220.3 640.5,220.3 640.5,230 640.5,230 640.5,240.3    600,240.3 600,250 600,260.3 600,270 600,280 680,280 680,270 680,260.3 680,250 680,240.3 680,230 680,200  "/>
	<polygon fill="#D33131" points="640.5,300 640.5,310 640.5,310 640.5,320.3 640.5,320.3 640.5,330 640.5,330 640.5,340.3    640.5,340.3 640.5,341.7 640.9,341.5 663.7,350 680,356.1 680,350 680,340.3 680,330 680,320.3 680,310 680,300  "/>
	<g>
		<g>
			<path fill="#FFFFFF" d="M634.8,218.3l-4.2-1.2c0.2,0.9,0.4,1.8,0.4,2.7c0,0.2,0,0.3,0,0.5L634.8,218.3z"/>
			<path fill="#FFFFFF" d="M619.9,209.5l-2.6-3.9l-0.8,4.7C617.6,209.8,618.7,209.6,619.9,209.5z"/>
			<path fill="#FFFFFF" d="M615.9,210.6l-4-2.5l1.2,4.7C613.8,211.9,614.8,211.2,615.9,210.6z"/>
			<path fill="#FFFFFF" d="M624.2,210.1l-0.8-4.5l-2.6,3.9C622,209.5,623.1,209.7,624.2,210.1z"/>
			<path fill="#FFFFFF" d="M627.8,212.4l1.1-4.3l-3.8,2.4C626.1,211,627,211.6,627.8,212.4z"/>
			<path fill="#FFFFFF" d="M630.2,216l2.7-3.4l-4.4,0.6C629.3,214,629.8,215,630.2,216z"/>
			<path fill="#FFFFFF" d="M612.6,213.2l-4.8-0.7l3,3.8C611.2,215.2,611.8,214.2,612.6,213.2z"/>
			<path fill="#FFFFFF" d="M623,229.9l3.2,3.2l-0.2-4.4C625.2,229.2,624.1,229.7,623,229.9z"/>
			<path fill="#FFFFFF" d="M627,228l4.2,1.5l-1.9-3.9C628.6,226.5,627.9,227.3,627,228z"/>
			<path fill="#FFFFFF" d="M629.8,224.6l4.4-0.3l-3.4-2.8C630.7,222.6,630.3,223.6,629.8,224.6z"/>
			<path fill="#FFFFFF" d="M610.2,219.8c0-1,0.1-2,0.4-2.9l-4.7,1.3l4.3,2.3C610.2,220.3,610.2,220.1,610.2,219.8z"/>
			<path fill="#FFFFFF" d="M620.6,230.2c-0.7,0-1.3-0.1-1.9-0.2l1.7,4.3l1.7-4.2C621.6,230.2,621.1,230.2,620.6,230.2z"/>
			<path fill="#FFFFFF" d="M610.3,221.2l-3.7,3.1l4.8,0.3C610.8,223.6,610.4,222.4,610.3,221.2z"/>
			<path fill="#FFFFFF" d="M611.7,225.2l-2.1,4.3l4.4-1.6C613.1,227.1,612.3,226.2,611.7,225.2z"/>
			<path fill="#FFFFFF" d="M614.6,228.4l-0.2,4.7l3.3-3.2C616.6,229.5,615.6,229,614.6,228.4z"/>
		</g>
		<circle fill="#FFFFFF" cx="620.6" cy="219.8" r="8.8"/>
	</g>
	<rect x="699.9" y="199.8" fill="#1CB0F6" width="40.5" height="40.3"/>
	<g>
		<g>
			<path fill="#FFFFFF" d="M633.8,319.3l-4.2-1.2c0.2,0.9,0.4,1.8,0.4,2.7c0,0.2,0,0.3,0,0.5L633.8,319.3z"/>
			<path fill="#FFFFFF" d="M618.9,310.5l-2.6-3.9l-0.8,4.7C616.6,310.8,617.7,310.6,618.9,310.5z"/>
			<path fill="#FFFFFF" d="M614.9,311.6l-4-2.5l1.2,4.7C612.8,312.9,613.8,312.2,614.9,311.6z"/>
			<path fill="#FFFFFF" d="M623.2,311.1l-0.8-4.5l-2.6,3.9C621,310.5,622.1,310.7,623.2,311.1z"/>
			<path fill="#FFFFFF" d="M626.8,313.4l1.1-4.3l-3.8,2.4C625.1,312,626,312.6,626.8,313.4z"/>
			<path fill="#FFFFFF" d="M629.2,317l2.7-3.4l-4.4,0.6C628.3,315,628.8,316,629.2,317z"/>
			<path fill="#FFFFFF" d="M611.6,314.2l-4.8-0.7l3,3.8C610.2,316.2,610.8,315.2,611.6,314.2z"/>
			<path fill="#FFFFFF" d="M622,330.9l3.2,3.2l-0.2-4.4C624.2,330.2,623.1,330.7,622,330.9z"/>
			<path fill="#FFFFFF" d="M626,329l4.2,1.5l-1.9-3.9C627.6,327.5,626.9,328.3,626,329z"/>
			<path fill="#FFFFFF" d="M628.8,325.6l4.4-0.3l-3.4-2.8C629.7,323.6,629.3,324.6,628.8,325.6z"/>
			<path fill="#FFFFFF" d="M609.2,320.8c0-1,0.1-2,0.4-2.9l-4.7,1.3l4.3,2.3C609.2,321.3,609.2,321.1,609.2,320.8z"/>
			<path fill="#FFFFFF" d="M619.6,331.2c-0.7,0-1.3-0.1-1.9-0.2l1.7,4.3l1.7-4.2C620.6,331.2,620.1,331.2,619.6,331.2z"/>
			<path fill="#FFFFFF" d="M609.3,322.2l-3.7,3.1l4.8,0.3C609.8,324.6,609.4,323.4,609.3,322.2z"/>
			<path fill="#FFFFFF" d="M610.7,326.2l-2.1,4.3l4.4-1.6C612.1,328.1,611.3,327.2,610.7,326.2z"/>
			<path fill="#FFFFFF" d="M613.6,329.4l-0.2,4.7l3.3-3.2C615.6,330.5,614.6,330,613.6,329.4z"/>
		</g>
		<circle fill="#FFFFFF" cx="619.6" cy="320.8" r="8.8"/>
	</g>
	<rect x="900" y="400" fill="#FFFFFF" width="40.6" height="40.3"/>
	<polygon fill="#FFFFFF" points="940.6,500 900,500 900,556 940.6,541.6  "/>
	<polygon fill="#7AC70C" points="940.5,400 940.5,410 940.5,410 940.5,420.3 940.5,420.3 940.5,430 940.5,430 940.5,440.3    900,440.3 900,450 900,460.3 900,470 900,480 980,480 980,470 980,460.3 980,450 980,440.3 980,430 980,400  "/>
	<polygon fill="#7AC70C" points="940.5,500 940.5,510 940.5,510 940.5,520.3 940.5,520.3 940.5,530 940.5,530 940.5,540.3    940.5,540.3 940.5,541.7 940.9,541.5 963.7,550 980,556.1 980,550 980,540.3 980,530 980,520.3 980,510 980,500  "/>
	<rect x="740.4" y="199.8" fill="#1CB0F6" width="39.7" height="8"/>
	<rect x="740.4" y="207.9" fill="#FFFFFF" width="39.7" height="8"/>
	<rect x="700" y="215.9" fill="#FFFFFF" width="40.4" height="8"/>
	<rect x="716.6" y="200.1" fill="#FFFFFF" width="8" height="40.1"/>
	<rect x="699.9" y="300" fill="#1CB0F6" width="40.5" height="40.3"/>
	<rect x="700" y="316.1" fill="#FFFFFF" width="40.4" height="8"/>
	<rect x="716.6" y="300.1" fill="#FFFFFF" width="8" height="40.3"/>
	<rect x="740.4" y="215.9" fill="#1CB0F6" width="39.7" height="8"/>
	<rect x="740.4" y="224" fill="#FFFFFF" width="39.7" height="8"/>
	<path fill="#FFFFFF" d="M280,556v-56h-39.2h0H200v56l24.1-8.7c-1.4-2.8-1.9-5.5-1.9-8.8c0-1,0.2-1.6,0.3-2.5c0.5-4.1,5.8-15,18-15   c12.9,0,19.6,11.7,18.2,20.9c0.1-0.6-0.1,0.7-0.1,0.7c-0.3,2-0.7,3.1-1.6,4.9"/>
	<rect x="740.4" y="232" fill="#1CB0F6" width="39.7" height="8"/>
	<rect x="700" y="240.1" fill="#FFFFFF" width="80" height="8"/>
	<rect x="700" y="248.1" fill="#1CB0F6" width="80" height="7.9"/>
	<rect x="740.4" y="300" fill="#1CB0F6" width="39.7" height="8"/>
	<rect x="740.4" y="308.1" fill="#FFFFFF" width="39.7" height="8"/>
	<rect x="740.4" y="316.1" fill="#1CB0F6" width="39.7" height="8"/>
	<rect x="740.4" y="324.2" fill="#FFFFFF" width="39.7" height="8"/>
	<rect x="740.4" y="332.3" fill="#1CB0F6" width="39.7" height="8"/>
	<rect x="700" y="256" fill="#FFFFFF" width="80" height="7.9"/>
	<rect x="700" y="263.9" fill="#1CB0F6" width="80" height="7.9"/>
	<rect x="700" y="271.8" fill="#FFFFFF" width="80" height="7.9"/>
	<polygon fill="#FFFFFF" points="700,340.3 700,348.3 721.9,348.3 740.8,341.6 758.9,348.3 780,348.3 780,340.3  "/>
	<g>
		<polygon fill="#1CB0F6" points="722.1,348.2 700,348.2 700,356   "/>
		<polygon fill="#1CB0F6" points="758.7,348.2 779.9,356.1 779.9,356.2 780,356.2 780,348.2   "/>
	</g>
	<path fill="#D33131" d="M240.5,420.5c-9.3,0-17,6.9-18.3,15.8c0.7,1.4,3.7,6.2,10,6.2c8.4,0,8-7.1,16.3-7.1c7.1,0,9.7,5.6,10.2,6.7   c0.2-1,0.3-2.1,0.3-3.2C259,428.8,250.8,420.5,240.5,420.5z"/>
	<g>
		<path fill="#D33131" d="M252.9,425.3"/>
		<path fill="#D33131" d="M222.3,436.4"/>
		<path fill="#1CB0F6" d="M258.7,442.2c-0.5-1.1-3.1-6.7-10.2-6.7c-8.2,0-7.9,7.1-16.3,7.1c-6.4,0-9.3-4.8-10-6.2    c-0.1,0.9-0.2,1.7-0.2,2.6c0,10.2,8.3,18.5,18.5,18.5c9.7,0,17.6-7.4,18.4-16.9C258.9,441.2,258.8,441.7,258.7,442.2z"/>
	</g>
	<g>
		
			<rect x="209.2" y="417.6" transform="matrix(-0.7071 0.7071 -0.7071 -0.7071 664.1976 562.1765)" fill="#262626" width="12.9" height="2.2"/>
		
			<rect x="211.1" y="419.4" transform="matrix(-0.7071 0.7071 -0.7071 -0.7071 668.7396 564.0582)" fill="#262626" width="12.9" height="2.2"/>
		
			<rect x="213" y="421.3" transform="matrix(-0.7071 0.7071 -0.7071 -0.7071 673.2832 565.9405)" fill="#262626" width="12.9" height="2.2"/>
	</g>
	<g>
		<path fill="#D33131" d="M258.6,542.4c0.1-0.5,0.2-1,0.2-1.5C258.7,541.4,258.7,541.9,258.6,542.4L258.6,542.4z"/>
		<path fill="#1CB0F6" d="M248.4,535.8c-8.2,0-7.8,7-16.1,7c-6.3,0-9.2-4.8-10-6.2c-0.1,0.9-0.2,1.7-0.2,2.6c0,2.9,0.7,5.6,1.9,8    l16.7-5.9l0.1,0l16.2,6c0.7-1.5,1.3-3.2,1.6-4.9C258.1,541.3,255.5,535.8,248.4,535.8z"/>
	</g>
	<g>
		<g>
			
				<rect x="263.5" y="462.6" transform="matrix(-0.7071 0.7071 -0.7071 -0.7071 783.6432 603.0697)" fill="#262626" width="6.9" height="2.5"/>
			
				<rect x="271.3" y="454.7" transform="matrix(0.7071 0.7071 -0.7071 0.7071 403.8412 -58.4948)" fill="#262626" width="2.5" height="7"/>
		</g>
		<g>
			
				<rect x="261.3" y="460.4" transform="matrix(-0.7071 0.7071 -0.7071 -0.7071 778.4094 600.9012)" fill="#262626" width="6.9" height="2.5"/>
			
				<rect x="269.1" y="452.6" transform="matrix(0.7071 0.7071 -0.7071 0.7071 401.6731 -57.5961)" fill="#262626" width="2.5" height="7"/>
		</g>
		<g>
			
				<rect x="259.1" y="458.3" transform="matrix(-0.7071 0.7071 -0.7071 -0.7071 773.1747 598.7345)" fill="#262626" width="6.9" height="2.5"/>
			
				<rect x="266.9" y="450.4" transform="matrix(0.7071 0.7071 -0.7071 0.7071 399.5047 -56.6981)" fill="#262626" width="2.5" height="7"/>
		</g>
	</g>
	<g>
		
			<rect x="213" y="453.2" transform="matrix(-0.7071 -0.7071 0.7071 -0.7071 53.3946 930.619)" fill="#262626" width="12.9" height="2.2"/>
		
			<rect x="209.2" y="456.9" transform="matrix(-0.7071 -0.7071 0.7071 -0.7071 44.309 934.3832)" fill="#262626" width="12.9" height="2.2"/>
		<g>
			
				<rect x="212.1" y="452.6" transform="matrix(-0.7071 -0.7071 0.7071 -0.7071 46.4076 926.5973)" fill="#262626" width="6" height="2.2"/>
			
				<rect x="218.9" y="455.5" transform="matrix(-0.7071 0.7071 -0.7071 -0.7071 699.7549 627.2578)" fill="#262626" width="2.2" height="6.1"/>
		</g>
	</g>
	<g>
		
			<rect x="257.7" y="419.6" transform="matrix(0.7071 0.7071 -0.7071 0.7071 374.8116 -63.5811)" fill="#262626" width="12.9" height="2.2"/>
		<g>
			
				<rect x="265.5" y="420.1" transform="matrix(0.7071 0.7071 -0.7071 0.7071 376.4774 -66.4756)" fill="#262626" width="6" height="2.2"/>
			
				<rect x="262.5" y="413.3" transform="matrix(0.7071 -0.7071 0.7071 0.7071 -217.187 308.3531)" fill="#262626" width="2.2" height="6.1"/>
		</g>
		<g>
			
				<rect x="261.7" y="423.9" transform="matrix(0.7071 0.7071 -0.7071 0.7071 378.0366 -62.7125)" fill="#262626" width="6" height="2.2"/>
			
				<rect x="258.8" y="417.1" transform="matrix(0.7071 -0.7071 0.7071 0.7071 -220.9502 306.794)" fill="#262626" width="2.2" height="6.1"/>
		</g>
	</g>
	<path fill="#D33131" d="M240.5,520.9c-9.2,0-16.9,6.8-18.2,15.7c0.7,1.4,3.6,6.2,10,6.2c8.3,0,8-7,16.1-7c7.1,0,9.7,5.5,10.1,6.6   c0.2-1,0.3-2.1,0.3-3.1C258.9,529.1,250.6,520.9,240.5,520.9z"/>
	<g>
		
			<rect x="205.4" y="515.4" transform="matrix(-0.7071 0.7071 -0.7071 -0.7071 728.6526 731.481)" fill="#262626" width="14.9" height="2.5"/>
		
			<rect x="207.6" y="517.6" transform="matrix(-0.7071 0.7071 -0.7071 -0.7071 733.8865 733.6495)" fill="#262626" width="14.9" height="2.5"/>
		
			<rect x="209.7" y="519.7" transform="matrix(-0.7071 0.7071 -0.7071 -0.7071 739.1223 735.8184)" fill="#262626" width="14.9" height="2.5"/>
	</g>
	<g>
		
			<rect x="259.3" y="517.7" transform="matrix(0.7071 0.7071 -0.7071 0.7071 445.0713 -36.5911)" fill="#262626" width="14.9" height="2.5"/>
		<g>
			
				<rect x="268.2" y="518.4" transform="matrix(0.7071 0.7071 -0.7071 0.7071 446.9908 -39.9266)" fill="#262626" width="6.9" height="2.5"/>
			
				<rect x="264.8" y="510.5" transform="matrix(0.7071 -0.7071 0.7071 0.7071 -285.5132 338.6999)" fill="#262626" width="2.5" height="7"/>
		</g>
		<g>
			
				<rect x="263.9" y="522.7" transform="matrix(0.7071 0.7071 -0.7071 0.7071 448.7875 -35.5902)" fill="#262626" width="6.9" height="2.5"/>
			
				<rect x="260.5" y="514.8" transform="matrix(0.7071 -0.7071 0.7071 0.7071 -289.8497 336.9033)" fill="#262626" width="2.5" height="7"/>
		</g>
	</g>
	<polygon fill="#1CB0F6" points="600,440 600,480 600.5,480 641.7,440.3 600,400 600,400  "/>
	<polygon fill="#1CB0F6" points="640.8,500 640.8,500 600.1,500 640,541.8 679.6,500  "/>
	<polygon fill="#D33131" points="600.1,500 600,500 600,556 640,541.8  "/>
	<polygon fill="#FFFFFF" points="679.6,500 640,541.8 680,556 680,500  "/>
	<polygon fill="#D33131" points="641.5,440 641.7,440.3 600.5,480 680,480 680,440  "/>
	<polygon fill="#FFFFFF" points="600,400 641.5,440 680,440 680,400  "/>
	<polygon fill="#D33131" points="766.4,551 780,556 780,500 766.4,500  "/>
	<polygon fill="#FFFFFF" points="752.6,545.9 766.3,550.9 766.3,500 752.6,500  "/>
	<polygon fill="#FFFFFF" points="713.7,551.1 727.5,546.2 727.5,500 713.7,500  "/>
	<polygon fill="#1CB0F6" points="752.6,500 740.8,500 740.8,500 727.4,500 727.4,546.3 740.8,541.5 740.8,541.5 752.6,545.9  "/>
	<polygon fill="#D33131" points="713.8,500 700,500 700,556 713.8,551.1  "/>
	<path fill="#7AC70C" d="M931.4,415.9L931.4,415.9h-7.9l-2.4-7.5c-0.1-0.3-0.3-0.5-0.6-0.5c-0.3,0-0.6,0.2-0.6,0.5l-2.4,7.5h-7.8   c-0.3,0-0.6,0.2-0.6,0.5c-0.1,0.3,0,0.6,0.2,0.8l6.3,4.6l-2.4,7.5c-0.1,0.3,0,0.6,0.2,0.8c0.1,0.1,0.3,0.1,0.4,0.1s0.3,0,0.4-0.1   l6.3-4.6l6.3,4.6c0.1,0.1,0.3,0.1,0.4,0.1s0.3,0,0.4-0.1c0.2-0.2,0.3-0.5,0.2-0.8l-2.4-7.5l6.3-4.6c0.2-0.1,0.3-0.3,0.3-0.6   C932.1,416.2,931.8,415.9,931.4,415.9z"/>
	<path fill="#7AC70C" d="M931.4,517.9L931.4,517.9h-7.9l-2.4-7.5c-0.1-0.3-0.3-0.5-0.6-0.5c-0.3,0-0.6,0.2-0.6,0.5l-2.4,7.5h-7.8   c-0.3,0-0.6,0.2-0.6,0.5c-0.1,0.3,0,0.6,0.2,0.8l6.3,4.6l-2.4,7.5c-0.1,0.3,0,0.6,0.2,0.8c0.1,0.1,0.3,0.1,0.4,0.1s0.3,0,0.4-0.1   l6.3-4.6l6.3,4.6c0.1,0.1,0.3,0.1,0.4,0.1s0.3,0,0.4-0.1c0.2-0.2,0.3-0.5,0.2-0.8l-2.4-7.5l6.3-4.6c0.2-0.1,0.3-0.3,0.3-0.6   C932.1,518.2,931.8,517.9,931.4,517.9z"/>
	<circle fill="#FFFFFF" cx="41.1" cy="642.1" r="22.8"/>
	<path fill="#231F20" d="M41.4,607.7c0,0,3.5,29.7,7.9,36.1c-1.8,3.1-8.2,12-8.2,12l-8.1-12.2C33.1,643.5,37.9,634.8,41.4,607.7z"/>
	<polygon fill="#D33131" points="0.1,700.1 80,700.1 80,755.9 40,741.6 0.1,756  "/>
	<path fill="#231F20" d="M50.8,646.4l-7.6,10.8c0,0,5.7,4.4,12.9,4.4S65,658,65,658S55.8,657.4,50.8,646.4z"/>
	<path fill="#231F20" d="M31.5,647.1l7.9,10.3c0,0-12.1,0.3-19.2,7.9C19.6,658.4,22.6,651.7,31.5,647.1z"/>
	<path fill="#FFFFFF" d="M40.1,713.3c-12.6,0-22.8,10.2-22.8,22.8c0,4.6,1.3,8.8,3.6,12.4l19-6.9l19.2,6.9c2.3-3.6,3.7-7.8,3.7-12.4   C62.9,723.5,52.7,713.3,40.1,713.3z"/>
	<path fill="#231F20" d="M32.1,737.5l3.7,5.6l4.2-1.5l4.7,1.7c1.5-2.1,2.9-4.3,3.6-5.5c-4.4-6.4-7.9-36.1-7.9-36.1   C36.9,728.8,32.1,737.5,32.1,737.5z"/>
	<path fill="#231F20" d="M54.9,747c-1.7-1.6-3.3-3.8-4.6-6.7l-2.8,4L54.9,747z"/>
	<path fill="#231F20" d="M33.3,744l-2.8-3.6c-4.3,2.2-7.2,4.9-9,7.8L33.3,744z"/>
	<path fill="#FFFFFF" d="M263.5,646.5l-1.4-5.8c1.6-2.3,1.2-5.5-1.1-7.3c-0.6-0.5-1.2-0.8-1.9-1l-1.3-3.1l-0.7-5.8l-4.4,4.3   c-4,0-9.2,0.4-13.4,6.4c-4,5.8-13,18.7-15.3,22l0,0l0,0c-0.3,0.5-0.5,0.7-0.5,0.7l22.8,0l2.1-5.4l2.1-5.1l3.8,3.4   c0,1.1,0.1,2.4,0.5,3.2c0.6,2.6,3,4.9,4.7,4.5l-0.1-1.6c1.7,0.1,3.5-0.6,4.6-2C265.9,651.5,265.6,648.3,263.5,646.5z M257.4,637.7   c-0.4-0.9,0.2-2,1.2-2.5l1.4,3.3C258.9,639,257.8,638.6,257.4,637.7z"/>
	<path opacity="0.53" fill="#FFFFFF" d="M252.5,629.3v-7.7c0,0-10.5-0.7-16.7,6.7c-6.2,7.3-22.7,28.7-22.7,28.7h30.5   c0,0,5.8-15.8,5.7-16.3C249.2,640.2,252.5,629.3,252.5,629.3z"/>
	<path opacity="0.53" fill="#FFFFFF" d="M259.1,728.6c1.6-2.3,1.2-5.5-1.1-7.3c-0.6-0.5-1.2-0.8-1.9-1l-1.3-3.1l-0.7-5.8l-4.4,4.3   c-4,0-9.2,0.4-13.4,6.4c-4,5.8-13,18.7-15.3,22l0,0l0,0c-0.3,0.5-0.5,0.7-0.5,0.7l10.9,0l1.6-0.6l7.7-2.8l0.1,0l3.4,1.2l1.3-3.3   l2.1-5.1l3.8,3.4c0,1.1,0.1,2.4,0.5,3.2c0.6,2.6,3,4.9,4.7,4.5l-0.1-1.6c1.7,0.1,3.5-0.6,4.6-2c1.8-2.2,1.4-5.4-0.7-7.3   L259.1,728.6z M254.4,725.7c-0.4-0.9,0.2-2,1.2-2.5l1.4,3.3C255.9,727,254.8,726.6,254.4,725.7z"/>
	<g>
		<path fill="#FF9100" d="M240.8,700L240.8,700H233h-14.7H200v18.9h0.1v14.7H200V756l18.4-6.5v0l13.1-4.7l-10.9,0    c0,0,0.2-0.3,0.5-0.7l0,0l0,0c2.3-3.3,11.3-16.2,15.3-22c4.1-6,9.4-6.3,13.4-6.4l4.4-4.3l0.7,5.8l1.3,3.1c0.7,0.2,1.3,0.5,1.9,1    c2.3,1.8,2.7,5,1.1,7.3l1.4,5.8c2.1,1.9,2.4,5.1,0.7,7.3c-1.1,1.5-2.9,2.2-4.6,2l0.1,1.6c-1.8,0.4-4.2-1.9-4.7-4.5    c-0.4-0.8-0.5-2.1-0.5-3.2l-3.8-3.4l-2.1,5.1l-1.3,3.3L280,756v-22.4v-14.7V700H240.8z"/>
		<path fill="#FF9100" d="M257,726.6l-1.4-3.3c-1.1,0.4-1.6,1.6-1.2,2.5C254.8,726.6,255.9,727,257,726.6z"/>
	</g>
	<path opacity="0.5" fill="#FFFFFF" d="M242.4,720.9c1.9-2.7,4.6-3.7,7.1-3.4c0-0.1,0-0.1,0-0.1v-7.7c0,0-10.5-0.7-16.7,6.7   c-6.2,7.3-22.7,28.7-22.7,28.7h15.2C228.4,734.9,236.6,729.2,242.4,720.9z"/>
	<path fill="none" stroke="#FFFFFF" stroke-width="2" stroke-linecap="round" stroke-linejoin="round" stroke-miterlimit="10" d="   M341.2,614c0,0-14.2,4-14.2,12.5c0,11.7,35.2,2.9,35.2,16.4"/>
	<path fill="#C5DD9E" d="M362.3,642.8c-0.4-0.6-7.4-0.6-12.4,1.8c1.1-2.9,1.9-6.1,1.9-9c0-9.8-9.4-21.6-10.5-21.6   c-1.4,0-10.5,11.8-10.5,21.6c0,2.8,0.7,5.8,1.7,8.7c-4.9-2.1-11.1-2-11.6-1.5c-0.4,0.5,1.8,9.5,6.5,13.2c4.4,3.4,12.4,3.9,14.1,3.3   c1.8,0.6,9.7,0.1,14.1-3.3C360.6,652.3,362.7,643.3,362.3,642.8z"/>
	<path fill="none" stroke="#FFFFFF" stroke-width="1.9456" stroke-miterlimit="10" d="M362.3,642.8c-0.4-0.6-7.4-0.6-12.4,1.8   c1.1-2.9,1.9-6.1,1.9-9c0-9.8-9.4-21.6-10.5-21.6c-1.4,0-10.5,11.8-10.5,21.6c0,2.8,0.7,5.8,1.7,8.7c-4.9-2.1-11.1-2-11.6-1.5   c-0.4,0.5,1.8,9.5,6.5,13.2c4.4,3.4,12.4,3.9,14.1,3.3c1.8,0.6,9.7,0.1,14.1-3.3C360.6,652.3,362.7,643.3,362.3,642.8z"/>
	<path fill="none" stroke="#FFFFFF" stroke-width="2" stroke-miterlimit="10" d="M341.2,652.7"/>
	<circle fill="#7AC70C" cx="341.4" cy="658.3" r="5"/>
	
		<path fill="none" stroke="#FFFFFF" stroke-width="2.0472" stroke-linecap="round" stroke-linejoin="round" stroke-miterlimit="10" d="   M341.3,652.3v12.6c0,0-0.2,4.1,5.2,4.1"/>
	<g>
		<path fill="#FFFFFF" d="M340.6,651.7c-0.1,0-0.1,0-0.2-0.1c0,0-0.1-0.1-0.1-0.2l0.7-26.2c0-0.1,0.1-0.2,0.2-0.2s0.2,0.1,0.2,0.2    l0.7,26.2c0,0.1,0,0.1-0.1,0.2c0,0-0.1,0.1-0.2,0.1H340.6z"/>
		<path fill="#FFFFFF" d="M341.3,625.2l0.7,26.2h-1.5L341.3,625.2 M341.3,624.7c-0.3,0-0.5,0.2-0.5,0.5l-0.7,26.2    c0,0.1,0,0.3,0.1,0.4c0.1,0.1,0.2,0.2,0.4,0.2h1.5c0.1,0,0.3-0.1,0.4-0.2c0.1-0.1,0.1-0.2,0.1-0.4l-0.7-26.2    C341.8,624.9,341.6,624.7,341.3,624.7L341.3,624.7z"/>
	</g>
	<circle fill="none" stroke="#FFFFFF" stroke-width="1.9456" stroke-miterlimit="10" cx="341.3" cy="658.2" r="6"/>
	
		<path fill="none" stroke="#FFFFFF" stroke-width="2.0472" stroke-linecap="round" stroke-linejoin="round" stroke-miterlimit="10" d="   M362.3,643c0,6.1-1.1,21.8-20.3,21.8c-20.9,0-20.9-16-20.9-21.6"/>
	
		<path fill="#7AC70C" stroke="#7AC70C" stroke-width="0.8092" stroke-linecap="round" stroke-linejoin="round" stroke-miterlimit="10" d="   M340.9,631.3"/>
	
		<path fill="#7AC70C" stroke="#7AC70C" stroke-width="0.8092" stroke-linecap="round" stroke-linejoin="round" stroke-miterlimit="10" d="   M343.9,629.5"/>
	<path fill="none" stroke="#FFFFFF" stroke-width="2" stroke-miterlimit="10" d="M341.2,744.7"/>
	<g>
		<path fill="#C5DD9E" d="M350,736.7c1.1-2.9,1.9-6.1,1.9-9c0-9.8-9.4-21.6-10.5-21.6c-1.4,0-10.5,11.8-10.5,21.6    c0,2.8,0.7,5.8,1.7,8.7c-4.9-2.1-11.1-2-11.6-1.5c-0.4,0.5,1.3,7.7,5.1,11.9l6.8-2.4l7.7-2.8l0.1,0l15.8,5.8    c4.2-4,6.1-12,5.7-12.5C361.9,734.3,354.9,734.2,350,736.7z"/>
		<polygon fill="#C5DD9E" points="326.2,746.7 326.2,746.7 330.9,745.1   "/>
	</g>
	<g>
		<path fill="#FFFFFF" d="M341.8,717.2c0-0.3-0.2-0.5-0.5-0.5s-0.5,0.2-0.5,0.5l-0.7,24.6l0.6-0.2l0.1,0l1.7,0.6L341.8,717.2z"/>
		
			<rect x="325.2" y="746.7" transform="matrix(-0.9423 0.3348 -0.3348 -0.9423 883.5994 1341.1281)" fill="#FFFFFF" width="2.1" height="0"/>
		
			<rect x="322.5" y="747.7" transform="matrix(0.9423 -0.3347 0.3347 0.9423 -231.6107 151.4285)" fill="#FFFFFF" width="2.1" height="0"/>
		<path fill="#FFFFFF" d="M363.2,734.5c-0.2-5-4.8-7.2-10.4-8.4c-0.4-5-2.8-10-4.9-13.5c0-0.1-4.1-6.8-6.2-7.5    c-0.2-0.1-0.5-0.2-0.8-0.1c-0.6,0.2-15,4.3-15,13.5c0,2.8,1.7,4.6,4.3,5.8c-0.2,1.1-0.3,2.3-0.3,3.4c0,2.2,0.4,4.5,1.1,7.1    c-2.7-0.8-5.7-1.2-7.7-1.2c-2.5,0-2.9,0.4-3.1,0.7c-0.1,0.1-0.2,0.4-0.2,0.6c0,0.1-0.1,0.2-0.1,0.3c0,2.9,0,8.1,2.4,12.8l1.9-0.7    c-0.6-1.1-1-2.2-1.3-3.3c0.6,1,1.3,2.1,2.1,3l2-0.7c-3-3.1-4.7-8.4-5.1-10.5c0-0.1,0-0.2,0-0.3c0.3,0,0.7-0.1,1.3-0.1    c2.4,0,5.9,0.5,8.9,1.7l2.1,0.9l-0.8-2.1c-1.1-3-1.7-5.8-1.7-8.3c0-8.6,7.4-18.9,9.4-20.5c1.9,1.6,9.5,11.9,9.5,20.5    c0,2.6-0.6,5.5-1.9,8.6l-0.9,2.3l2.2-1.1c3.1-1.5,7.1-2.1,9.6-2.1c0.6,0,1,0,1.3,0.1c0,0.2,0,0.4,0,0.5c-0.5,2.4-2.4,8-5.7,10.9    l2,0.7c0.8-0.8,1.4-1.7,2-2.6c-0.4,1-0.9,2-1.4,2.8l1.9,0.7c2.1-3.6,3.1-8.2,3.1-13.7C363.3,734.8,363.3,734.7,363.2,734.5    C363.2,734.5,363.2,734.5,363.2,734.5z M330.8,722.3c-1.7-0.9-2.8-2.1-2.8-3.8c0-5,5.7-8.4,9.7-10.1    C335.1,711.7,332.1,717.1,330.8,722.3z M360,733.5c-2.3,0-5.5,0.4-8.4,1.4c0.8-2.4,1.2-4.6,1.2-6.7c4.2,0.9,7.5,2.4,8.2,5.4    C360.8,733.5,360.4,733.5,360,733.5z"/>
	</g>
	<g>
		<path fill="#7AC70C" d="M358.4,748l-0.2-0.1c0.5-0.9,1-1.8,1.4-2.8c-0.6,0.9-1.3,1.8-2,2.6l-2-0.7"/>
		<path fill="#7AC70C" d="M328,718.5c0,1.7,1,2.9,2.8,3.8c1.4-5.3,4.4-10.6,6.9-13.9C333.7,710.1,328,713.5,328,718.5z"/>
		<path fill="#7AC70C" d="M318.3,749.5l6.9-2.5c-0.8-0.9-1.5-2-2.1-3c0.3,1.1,0.8,2.2,1.3,3.3l-1.9,0.7c-2.4-4.8-2.4-10-2.4-12.8    c0-0.1,0-0.2,0.1-0.3c0-0.3,0.1-0.5,0.2-0.6c0.2-0.3,0.5-0.7,3.1-0.7c2,0,5,0.3,7.7,1.2c-0.8-2.5-1.1-4.9-1.1-7.1    c0-1.1,0.1-2.2,0.3-3.4c-2.6-1.2-4.3-3-4.3-5.8c0-9.2,14.4-13.3,15-13.5c0.3-0.1,0.5,0,0.8,0.1c2,0.7,6.1,7.5,6.2,7.5    c2.1,3.5,4.5,8.5,4.9,13.5c5.7,1.2,10.2,3.3,10.4,8.4c0,0,0,0,0,0c0.1,0.1,0.1,0.3,0.1,0.4c0,5.5-1.1,10.1-3.1,13.7L380,756v-22.4    v-14.7V700h-39.2h0H333h-14.7H300v56l22.6-8h0l1.9-0.7l0,0"/>
		<path fill="#7AC70C" d="M361.1,733.6c-0.8-2.9-4-4.4-8.2-5.4c-0.1,2.1-0.5,4.3-1.2,6.7c2.9-1,6.1-1.4,8.4-1.4    C360.4,733.5,360.8,733.5,361.1,733.6z"/>
	</g>
	
		<path fill="#7AC70C" stroke="#7AC70C" stroke-width="0.8092" stroke-linecap="round" stroke-linejoin="round" stroke-miterlimit="10" d="   M340.9,723.3"/>
	
		<path fill="#7AC70C" stroke="#7AC70C" stroke-width="0.8092" stroke-linecap="round" stroke-linejoin="round" stroke-miterlimit="10" d="   M343.9,721.5"/>
	<path fill="#FFFFFF" d="M448.6,623l-3.9,4.3l2.9,2.1l-4.4,10.5l1.8-8.9l-3.9-3l4-7.8c-1.6-1-3.3-1.5-5.1-1.5   c-9.7,0-17.6,16.8-17.6,26.5c0,9.7,7.9,16.9,17.6,16.9c9.7,0,17.6-7.2,17.6-16.9C457.7,638.5,454,628.6,448.6,623z"/>
	<path fill="#FFFFFF" d="M444.7,722.2l2.9,2.1l-4.4,10.5l1.8-8.9l-3.9-3l4-7.8c-1.6-1-3.3-1.5-5.1-1.5c-9.7,0-17.6,16.8-17.6,26.5   c0,2.6,0.6,5.1,1.7,7.3l16.6-5.9l0.1,0l15.3,5.7c1-2.1,1.5-4.5,1.5-7c0-6.6-3.7-16.6-9.1-22.2L444.7,722.2z"/>
	<path fill="#1CB0F6" d="M440.8,700L440.8,700H400v56l24.2-8.6c-1-2.2-1.7-4.6-1.7-7.3c0-9.7,7.9-26.5,17.6-26.5   c1.8,0,3.5,0.6,5.1,1.5l-4,7.8l3.9,3l-1.8,8.9l4.4-10.5l-2.9-2.1l3.9-4.3c5.4,5.6,9.1,15.6,9.1,22.2c0,2.5-0.5,4.9-1.5,7L480,756   v-56H440.8z"/>
</g>
<g id="Layer_2">
</g>
</svg>